<svg width="40" height="50" viewBox="0 0 40 50" fill="none" xmlns="http://www.w3.org/2000/svg">
<path d="M4.2986 27.5396L4.29889 27.5398L33.8838 46.5531L33.8845 46.5536C34.9897 47.2644 35.8996 47.5 36.4194 47.5C36.8407 47.5 36.9934 47.372 37.0949 47.2464C37.2483 47.0566 37.5 46.5608 37.5 45.5434L37.5 4.45008C37.5 3.43432 37.2488 2.94005 37.0963 2.7514C36.9957 2.62694 36.8447 2.5 36.4263 2.5C35.913 2.5 35.0265 2.72993 33.9092 3.44892L33.9075 3.44999L4.31035 22.4619L4.2986 27.5396ZM4.2986 27.5396C2.88701 26.6327 2.49983 25.6864 2.5 25.0028L2.5 25.0022M4.2986 27.5396L2.5 25.0022M2.5 25.0022C2.5 24.3253 2.89057 23.3759 4.30878 22.4629L2.5 25.0022Z" stroke="white" stroke-width="5"/>
</svg>
