<svg width="154" height="88" viewBox="0 0 154 88" fill="none" xmlns="http://www.w3.org/2000/svg">
<path fill-rule="evenodd" clip-rule="evenodd" d="M34.5162 49.7119H35.1367V51.4721H35.1906V51.6616H30.4409V51.4721H30.4681V49.7119H30.6837H31.3585H31.9524H32.627H33.2209H33.8954H34.5162ZM37.6465 33.3309H42.8008V34.5495H42.9899V64.2523H44.852V59.2973L50.1955 54.1527V43.241L54.5131 38.6921L59.0469 42.8077V46.7067H59.0739V44.0263H68.0339L69.8957 46.7067H69.68V54.5587H69.8957H83.1195V54.4232L83.3891 52.5011L83.6053 51.8171L83.9019 50.8763L84.4147 50.0878L84.7117 49.6309L84.9006 49.4046L85.3322 48.887L85.6833 48.4665L85.8719 48.3067L86.8973 47.4377L88.0039 46.7608L89.3535 46.2733V49.8475V49.9288H101.686V50.5785H89.3535L88.7327 50.7951L87.3831 51.445L86.0069 52.4199L84.8466 53.5299L84.1919 54.5587H86.2037L86.5195 53.6924L87.5451 52.4738L88.6516 51.445L89.5963 50.7951L89.8932 50.6327H90.5407L89.8932 51.012L88.8136 51.7968L87.842 52.6094L86.8973 53.6111L86.3446 54.5587H87.422C88.697 53.7414 90.0832 53.0847 91.5529 52.6173L91.4041 52.6094L91.1073 52.5279H90.9995L91.7283 51.012H101.605L102.415 52.5279L102.085 52.5943C103.077 52.9048 104.031 53.3018 104.939 53.7757L111.266 49.8362V44.6488H110.646V43.0243H134.934V44.4595V44.6488V58.6744V62.1942V63.7491H141.902L144.129 71.2488L146.39 63.7491H154V73.3814H152.814V78.2299H154V87.8619H130.431C130.013 87.9532 129.565 88 129.083 88C128.028 88 127.092 87.765 126.291 87.3482H125.266V87.8619H108.119V87.3482H107.11H87.1942H65.2271H32.924H0V78.4672V75.597V73.3226H0.0267399V68.2051H0V66.5264V64.2523H4.04094L4.70144 7.74397H4.02099V7.33775V7.01311V5.17169H4.56056H4.73138L4.74215 4.25103H4.72249V3.57433H4.77647V1.70608L4.34485 0.839476V0.0812847H8.60878L8.63553 0.812448L8.28462 1.54361V3.57433V3.84511V4.25103H8.23793L8.2487 5.17169H8.71644H9.04061V7.01311H9.06734V7.74397H8.27893L8.93784 64.2523H16.5857L17.2249 7.74397H16.5428V7.01311H16.5698V5.17169H17.1096H17.254L17.2712 3.62848V3.57433H17.2986V1.70608L16.8934 0.839476L16.9206 0L21.1846 0.0274285V0.812448L20.8607 1.54361V3.57433V3.84511V4.25103H20.787L20.7979 5.17169H21.2656H21.5892V7.01311H21.6164V7.74397H20.8278L21.4866 64.2523H25.5025V58.6744L25.7724 57.9163L26.1502 57.2392L26.9597 56.9286V55.5876H26.9858C26.9508 55.4463 26.9326 55.3017 26.9326 55.1544C26.9326 53.825 28.4093 52.7015 30.4142 52.3622C30.8179 52.294 31.2436 52.2574 31.6824 52.2574C33.1073 52.2574 34.3804 52.6425 35.2448 53.251V51.6888L35.6494 52.2574L35.8654 52.88L35.9463 53.4216L36.027 54.016C36.0273 54.0162 36.0273 54.0165 36.0275 54.0168C36.2708 54.3664 36.4052 54.7509 36.4052 55.1544C36.4052 55.3017 36.3871 55.4463 36.3528 55.5876H36.4052V64.2523H37.4575V34.5495H37.6465V33.3309ZM88.8314 66.3667H85.7667V70.7638H86.9529V80.8475H85.7667V85.2444H90.0176V80.8475H88.8314V72.2846C88.8314 71.3588 89.1936 70.8296 89.9186 70.8296H91.8956C92.7855 70.8296 93.2138 71.3921 93.2138 72.2846V80.8475H92.0934V85.2444H96.2124V80.8475H95.0262V72.2846C95.0262 71.2266 95.3887 70.8296 96.2783 70.8296H98.0907C98.9805 70.8296 99.4089 71.3588 99.4089 72.2846V80.8475H98.2226V85.2444H102.44V80.8475H101.221V70.0034C101.221 68.1517 100.266 66.2012 98.0248 66.2012C96.8057 66.2012 95.7182 66.9285 94.8616 68.2842C94.2025 66.9285 93.2138 66.2012 91.7968 66.2012C90.446 66.2012 89.5893 66.8294 88.8314 68.2842V66.3667ZM76.1118 82.6989V72.1192C76.1118 71.2266 76.573 70.7638 77.298 70.7638H79.5055C80.1978 70.7638 80.6591 71.2266 80.6591 72.0201V80.8475H79.4725V85.2444H83.6577V80.8475H82.4715V70.7638H83.6577V66.3667H80.6591V68.0856C79.8021 66.7634 78.9454 66.2012 77.6931 66.2012C75.6502 66.2012 74.2994 67.8544 74.2994 70.2347V79.4258C74.2994 80.3516 73.8707 80.8475 73.1129 80.8475H72.7504V85.2444H74.332C75.3539 85.2444 76.1118 84.1206 76.1118 82.6989ZM68.2031 76.6818V79.4258C68.2031 80.5168 67.8077 80.9135 66.819 80.9135H64.6771C64.1171 80.9135 63.6226 80.4507 63.6226 79.657V77.8389C63.6226 77.0785 63.9854 76.6818 64.8088 76.6818H68.2031ZM61.8434 73.6733H63.6226V72.1192C63.6226 71.1272 63.9192 70.6317 64.8088 70.6317H67.0498C67.8077 70.6317 68.2031 71.1603 68.2031 72.1192V74.8634H64.8088C62.9308 74.8634 61.8434 75.8881 61.8434 77.7398V81.5418C61.8434 83.4593 62.9638 85.3825 65.0728 85.3825C66.4566 85.3825 67.4452 84.6167 68.2031 83.228V85.2444H71.2349V80.8475H70.0155V70.1686C70.0155 67.6889 68.5326 66.2012 65.9295 66.2012C63.1942 66.2012 61.8434 67.6229 61.8434 70.3668V73.6733ZM52.5177 74.5988H55.4173C56.3075 74.5988 57.0653 75.1941 57.0653 76.0866V77.3101C57.0653 78.4669 56.6041 78.8636 55.4173 78.8636H52.5177V74.5988ZM144.669 85.2444L148.327 72.2846V80.8475H147.14V85.2444H151.391V80.8475H150.205V70.7638H151.391V66.3667H148.327L144.109 80.3516L139.957 66.3667H136.892V70.7638H138.078V80.8475H136.892V85.2444H141.143V80.8475H139.957V72.2846L143.614 85.2444H144.669ZM133.795 70.7638H134.948V66.3667H130.73V70.7638H131.982V79.2606C131.982 80.5168 131.719 80.8475 130.73 80.8475H128.687C127.831 80.8475 127.501 80.3516 127.501 79.2606V70.7638H128.72V66.3667H124.304V70.7638H125.59V81.2111C125.59 83.7569 126.974 85.3825 129.083 85.3825C130.368 85.3825 131.126 84.881 131.982 83.5914V85.2444H134.981V80.8475H133.795V70.7638ZM118.011 73.2432L121.24 67.9865H122.657V61.6388H117.187V67.9865H118.439L116.561 71.1272L114.715 67.9865H115.836V61.6388H110.53V67.9865H111.882L115.309 73.2432L111.848 78.8636H110.728V85.2444H116.001V78.8636H114.65L116.561 75.4914L118.67 78.8636H117.318V85.2444H122.657V78.8636H121.438L118.011 73.2432ZM48.6622 61.6388V67.9865H50.31V78.8636H48.6622V85.2444H54.8243C57.4937 85.2444 59.207 83.4593 59.207 80.8144V76.3842C59.207 73.6733 57.4275 72.5492 55.4834 72.5492H52.5177V67.9865H55.1868C56.1425 67.9865 56.4718 68.2842 56.4718 69.2761V71.1603H58.647V61.6388H48.6622Z" fill="white"/>
</svg>
