<svg width="155" height="50" viewBox="0 0 155 50" fill="none" xmlns="http://www.w3.org/2000/svg">
<path d="M77.9652 40.4767L80.5613 45.5362C79.3697 46.8117 77.6247 47.8746 75.3691 48.6399C73.1135 49.4478 70.7302 49.8304 68.2618 49.8304C62.3886 49.8304 57.5794 48.0022 53.9619 44.3882C50.3018 40.7743 48.4718 35.9699 48.4718 30.0175C48.4718 24.2777 50.2167 19.5583 53.664 15.8168C57.1538 12.0753 61.963 10.2471 68.0915 10.2471C73.0284 10.2471 76.9438 11.5651 79.7953 14.1586L76.7736 19.1331C74.1775 17.4324 71.2835 16.5396 68.0915 16.5396C64.474 16.5396 61.4949 17.7726 59.1116 20.1961C56.7708 22.662 55.5792 25.9358 55.5792 30.0175C55.5792 34.0141 56.8134 37.2454 59.2818 39.7539C61.7502 42.2624 64.9422 43.4954 68.8576 43.4954C72.2623 43.5804 75.284 42.56 77.9652 40.4767Z" fill="#F4EEE2"/>
<path d="M87.2431 49.2776V10.8848H94.01V29.082L109.161 10.8848H117.29L101.5 28.7419L118.269 49.2351H109.714L94.01 29.4647V49.2351H87.2431V49.2776Z" fill="#F4EEE2"/>
<path d="M124.099 49.2776V10.8848H130.866V29.082L146.017 10.8848H154.146L138.356 28.7419L155.125 49.2351H146.57L130.866 29.4647V49.2351H124.099V49.2776Z" fill="#F4EEE2"/>
<path d="M8.42679 15.391C8.55447 15.3059 8.68215 15.1784 8.68215 15.0083C8.55447 15.0083 8.42679 15.0508 8.34168 15.1784C8.25656 15.2634 8.17144 15.3484 8.04376 15.4335C8.214 15.476 8.29912 15.476 8.42679 15.391Z" fill="#F4EEE2"/>
<path d="M0.468231 48.0018C0.425672 48.2569 0.468231 48.4269 0.638467 48.5545C0.638467 48.4695 0.681026 48.3844 0.681026 48.3419C0.851262 47.8317 1.19173 47.4491 1.57477 47.0664C1.10662 47.194 0.553349 47.4916 0.468231 48.0018Z" fill="#F4EEE2"/>
<path d="M38.1329 49.1495C38.3457 49.1495 38.6011 49.1495 38.8139 49.0645C39.1969 48.9369 39.58 48.5968 39.7927 48.1716C39.963 47.7889 40.0481 47.3638 40.0481 46.7685C40.0907 44.5576 39.1544 42.4743 38.1755 40.5611C37.7499 39.7107 37.2392 38.7753 36.5157 38.01C35.9624 37.4148 35.2815 36.9471 34.6431 36.5219C34.2175 36.2243 33.8345 35.9267 33.4089 35.6291C32.5152 34.9488 28.3444 31.8025 28.3444 31.8025C28.3444 31.8025 27.5357 31.2498 27.1953 30.9522C27.1527 30.9097 27.0676 30.8672 27.025 30.8247C26.8122 31.1223 26.4718 31.3349 26.0887 31.3349C26.0462 31.3349 26.0462 31.3349 26.0036 31.3349C25.9185 31.3349 25.8334 31.3349 25.7908 31.2923C25.8334 31.5474 25.7483 31.8025 25.6206 32.0151C25.4504 32.3127 25.195 32.5253 24.9396 32.5679C24.8971 32.5679 24.8545 32.5679 24.7694 32.5679C24.6843 32.5679 24.5992 32.5679 24.5141 32.5253C24.4715 32.8655 24.3013 33.0781 23.9608 33.2056C23.8331 33.2481 23.6629 33.2906 23.5352 33.2906C23.2798 33.2906 23.0245 33.2056 22.7691 33.0781C22.684 33.0355 22.5989 32.9505 22.5138 32.8655C22.3861 33.2906 21.9605 33.5032 21.7052 33.5032C21.4072 33.5032 21.1519 33.3757 20.9817 33.1631C20.8965 33.5032 20.6837 34.0134 20.1305 34.0559H20.0879C19.8751 34.0559 19.6623 33.9284 19.4921 33.7583C19.3219 33.6308 19.1942 33.4607 19.0665 33.2906C19.0239 33.3757 18.9388 33.5032 18.8537 33.5457C18.7686 33.6308 18.5984 33.7583 18.4281 33.7583H18.3856C18.0876 33.7158 17.8748 33.5032 17.7046 33.3757C17.5344 33.2056 17.3641 33.0355 17.2365 32.823C17.0662 33.2056 16.7683 33.5457 16.4704 33.5883C16.4278 33.5883 16.4278 33.5883 16.3853 33.5883C16.0874 33.5883 15.832 33.3757 15.7043 33.1206C15.5767 32.8655 15.5341 32.5679 15.5341 32.3127C15.5341 31.7175 15.6618 30.8672 15.832 30.1869C15.7895 30.0168 15.7469 29.8468 15.7043 29.6767C15.6618 29.3791 15.7043 28.9964 15.7469 28.6563C15.7895 28.4437 15.7895 28.2311 15.7895 28.0185C15.7469 27.8059 15.7469 27.5934 15.7469 27.3383C15.7469 26.5304 15.7469 25.7226 15.8746 24.9573C15.8746 24.8298 15.9171 24.6597 16.0023 24.5321C16.1299 24.3196 16.3853 24.2345 16.5555 24.1495C17.8748 23.5968 19.3219 22.959 20.0028 21.6835C20.3433 21.0032 20.4284 20.2379 20.5135 19.4726C20.5561 19.175 20.5561 18.8774 20.6412 18.5798C20.6412 18.4947 20.5986 18.4522 20.5561 18.3672C20.5561 18.3247 20.5135 18.3247 20.5135 18.2821C20.4284 17.9845 20.2582 17.6869 20.1305 17.3893C20.1305 17.3893 20.1305 17.3893 20.1305 17.3468C20.0454 17.2192 19.9602 17.0491 19.9177 16.9216C19.8326 16.7515 19.7474 16.624 19.6623 16.4539C19.5772 16.2838 19.4921 16.1563 19.407 15.9862C19.1942 15.6036 19.0239 15.2634 18.8963 14.9233C18.8963 14.9233 18.8963 14.9233 18.8963 14.8808C18.8537 14.7107 18.7686 14.5406 18.726 14.4131C18.6835 14.3281 18.6835 14.243 18.6409 14.158C18.6409 14.073 18.5984 13.9879 18.5984 13.9029C18.5984 13.8179 18.5558 13.6903 18.5558 13.6053C18.5558 13.5627 18.5558 13.5202 18.5558 13.4777V13.4352C18.5558 13.4352 18.5558 13.4352 18.5558 13.3927C18.5558 13.3076 18.5132 13.1801 18.5132 13.0951C18.5132 13.0525 18.5132 13.01 18.5132 12.9675L18.4707 13.01C18.0025 13.5627 17.3216 13.9029 16.513 13.9454C16.4278 13.9454 16.3427 13.9454 16.2576 13.9454C16.0874 13.9454 15.9171 13.9454 15.7469 13.9454L14.6829 13.9029C14.5978 13.9029 14.5552 13.8179 14.5552 13.7328C14.5552 13.6478 14.5978 13.6053 14.7255 13.6053L15.7895 13.6478C16.0448 13.6478 16.2576 13.6903 16.513 13.6478C17.1939 13.6053 17.8323 13.3076 18.2579 12.84C18.6409 12.3723 18.8111 11.7345 18.6835 11.1818C18.0025 11.4794 17.279 11.6495 16.5555 11.692C16.3853 11.692 16.2576 11.692 16.0874 11.692C15.8746 11.692 15.6618 11.692 15.4915 11.692C15.066 11.7345 14.5978 11.8196 14.2148 12.0321C14.1297 12.0747 14.0445 12.0321 14.002 11.9471C13.9594 11.8621 14.002 11.777 14.0871 11.7345C14.5127 11.5219 14.9808 11.3944 15.4915 11.3944C15.7043 11.3944 15.9171 11.3944 16.1299 11.3944C16.2576 11.3944 16.4278 11.3944 16.5555 11.3944C17.3216 11.3519 18.0451 11.1818 18.726 10.8417C18.7686 10.8417 18.8111 10.8417 18.8537 10.8417C18.8963 10.8417 18.9388 10.8842 18.9388 10.9267C19.0665 11.2668 19.0665 11.6495 18.9814 12.0321C19.6198 11.3519 20.0879 10.544 20.5561 9.60867C21.1519 8.46071 21.3647 7.52533 21.237 6.67499C21.1093 5.78214 20.5986 4.97431 19.8326 4.42159C19.2367 3.99642 17.5769 3.14608 16.3853 2.76343C16.8534 3.06105 17.0662 3.35867 17.0237 3.6988C17.0237 3.82635 16.9385 3.9539 16.8534 4.08146C17.8323 4.03894 18.5984 4.37907 19.0239 4.63418C20.0028 5.22941 20.7263 6.29234 20.7263 7.1852C20.7263 10.1189 17.6195 10.6291 13.321 11.3519C12.8954 11.4369 12.4699 11.4794 12.0443 11.5644C11.5336 11.6495 10.6824 11.9046 10.3845 12.5849C10.3845 12.6274 10.3419 12.6699 10.3419 12.7124C10.2993 12.7974 10.2568 12.925 10.2142 13.01C10.1291 13.1376 10.0014 13.2226 9.87375 13.3076C9.6184 13.4777 9.32049 13.6053 9.02257 13.7328C8.42674 13.9879 7.87348 14.243 7.61812 14.7532C7.49045 14.9658 7.49045 15.2209 7.49045 15.476C7.53301 15.5185 7.533 15.5185 7.57556 15.5185C7.61812 15.5185 7.66068 15.476 7.66068 15.4335L7.70324 15.391L7.7458 15.3059C7.87348 15.1784 8.00115 15.0083 8.12883 14.9233C8.34163 14.7532 8.59698 14.6682 8.80978 14.7107C8.85234 14.7107 8.89489 14.7532 8.93745 14.7957C9.06513 15.1359 8.85233 15.476 8.55442 15.6461C8.34163 15.7736 8.12883 15.7311 7.91604 15.7311C7.87348 15.7311 7.83092 15.7311 7.78836 15.7311C7.7458 15.7736 7.66068 15.8161 7.61812 15.8587C7.57556 15.8587 7.53301 15.8587 7.49045 15.8587C7.61812 16.3264 7.9586 16.794 8.25651 17.1767C8.29907 17.2617 8.38419 17.3042 8.42674 17.3468C8.59698 17.3893 8.76722 17.2192 8.89489 17.0917C9.23537 16.709 9.70352 16.3689 10.3419 16.1138C10.7249 15.9437 11.108 15.9012 11.4059 16.0287C11.6187 16.1138 11.7463 16.2413 11.8315 16.4964C12.0443 17.0066 11.7038 17.5168 11.2782 17.8144C10.8952 18.0696 10.427 18.1546 9.95887 18.1121H9.83119C9.66096 18.0696 9.49072 18.0696 9.32048 18.1121C9.19281 18.1546 9.02257 18.2396 9.02257 18.4097C9.02257 19.09 9.23537 19.2175 9.44816 19.26C9.6184 19.3025 9.83119 19.3025 10.044 19.26C10.2568 19.26 10.427 19.2175 10.6398 19.26C11.5336 19.3876 12.0017 20.3655 12.0443 21.2158C12.0868 22.5764 11.3633 23.7668 10.6398 24.9148C10.5121 25.0849 10.427 25.2974 10.2993 25.4675C9.6184 26.6155 9.06513 27.8059 8.6821 29.0815C8.34163 30.1019 8.00115 31.4624 8.38419 32.7379C8.42674 32.823 8.4693 32.9505 8.4693 33.0355C8.59698 33.3757 8.6821 33.6733 8.6821 34.0559C8.6821 34.311 8.59698 34.5662 8.51186 34.7787C8.08627 35.9692 7.49045 37.2872 6.93718 38.5627C6.38391 39.8383 5.78808 41.1563 5.36249 42.3042C5.31994 42.4743 5.23482 42.6869 5.1497 42.942C4.89435 43.7923 4.55387 44.8128 4.12828 45.2804C3.74525 45.7481 3.23454 46.1308 2.72383 46.5134C1.95777 47.1087 1.19171 47.6614 0.893797 48.5117C0.851238 48.6818 0.851238 48.7668 0.893797 48.8519C0.936356 48.8944 1.06403 49.0219 1.44706 49.0219C1.44706 48.8944 1.48962 48.7668 1.57474 48.6393C2.00033 47.8315 2.76639 47.3213 3.4899 46.8536C3.57502 46.7685 3.70269 46.726 3.78781 46.641C4.08572 46.4709 4.4262 46.0032 4.80923 45.3655C4.9369 45.1529 8.6821 36.777 9.87375 33.3757C9.19281 32.2277 8.93745 31.2073 9.02257 30.3145C9.10769 29.2515 9.87375 28.061 11.108 27.9335C11.1931 27.9335 11.2782 27.976 11.2782 28.061C11.2782 28.1461 11.2356 28.2311 11.1505 28.2311C10.1291 28.3587 9.4056 29.3791 9.32048 30.357C9.23537 31.2073 9.49072 32.1852 10.1717 33.2906C10.2142 33.3332 10.2142 33.3757 10.1717 33.4182C9.06513 36.6495 5.27738 45.1954 5.06458 45.5355C4.85179 45.9182 4.38364 46.641 3.95805 46.8961C3.87293 46.9811 3.74525 47.0236 3.66013 47.1087C2.93663 47.5764 2.21313 48.044 1.8301 48.8093C1.74498 49.0219 1.70242 49.1495 1.78754 49.2345C1.91521 49.4046 2.38336 49.5321 2.72383 49.5321C2.72383 49.0219 2.89407 48.4692 3.2771 48.044C3.66013 47.5764 4.25596 47.2787 4.80923 47.2362C4.89435 47.2362 4.97946 47.2787 4.97946 47.3638C4.97946 47.4488 4.9369 47.5338 4.85179 47.5338C4.34108 47.5764 3.87293 47.8315 3.53246 48.2566C3.19198 48.6393 3.02175 49.107 3.02175 49.5747C4.17084 49.7447 5.36249 49.7022 6.51159 49.4896C7.57556 46.6835 8.55442 44.6002 9.36304 43.1971C9.53328 42.8995 9.74607 42.5593 9.95887 42.1767C10.427 41.3689 10.9377 40.476 11.3633 39.8383C12.4273 38.2226 13.3636 36.5219 14.1722 34.7362C14.2148 34.6512 14.2999 34.6087 14.385 34.6512C14.4701 34.6937 14.5127 34.7787 14.4701 34.8638C13.9594 35.9692 13.4062 37.0321 12.8103 38.0951C15.449 41.1988 21.7477 42.5168 24.7694 42.6019H25.0673C25.6206 44.09 26.642 45.5355 28.0039 46.7685C28.1316 46.8111 28.3018 46.811 28.4295 46.8536C28.1316 46.5134 27.8337 46.1733 27.5357 45.8332C26.5994 44.6852 25.7483 43.5372 25.4929 42.1342C25.3652 41.4539 25.4078 40.7736 25.6206 40.1359L25.8334 39.5406C25.9185 39.2855 26.0462 39.073 26.2164 38.8604C26.8548 37.8825 27.8762 37.2022 29.0253 36.9896C29.5786 36.8621 30.1744 36.8621 30.8554 36.9046C32.1747 37.0321 33.494 37.4998 34.6005 38.2651C34.6857 38.3076 34.6857 38.3927 34.6431 38.4777C34.6005 38.5627 34.5154 38.5627 34.4303 38.5202C33.3663 37.7974 32.0896 37.3298 30.8128 37.2022C30.1744 37.1172 29.5786 37.1597 29.0679 37.2447C28.0039 37.4573 27.0676 38.0951 26.4718 38.9879C25.8759 39.8808 25.6206 40.9862 25.8334 42.0491C26.0462 43.3672 26.8974 44.4726 27.7911 45.6206C28.6848 46.726 29.7914 47.959 31.2384 48.1716C31.2809 48.1716 31.2809 48.1716 31.3235 48.1716C31.3235 48.1291 31.3235 48.0866 31.3661 48.044C31.4512 48.0015 31.5363 48.0015 31.5789 48.0866C31.6214 48.1716 31.664 48.2566 31.6214 48.3417C31.5363 48.4692 31.4086 48.5117 31.2809 48.5117H31.2384C30.3021 48.3842 29.536 47.874 28.8551 47.2362C28.8551 47.2362 28.8125 47.2362 28.77 47.2362C28.5572 47.1937 28.3444 47.1512 28.1316 47.1087C28.089 47.1087 28.089 47.1512 28.0465 47.1512C28.0039 47.1512 27.9613 47.1512 27.9613 47.1087L27.9188 47.0662C26.1313 46.7685 24.3438 46.7685 22.5989 46.8536C22.1308 46.8536 21.6626 46.9386 21.237 47.0236L20.8965 47.0662C20.3007 47.1512 19.9602 47.6614 19.79 47.959C19.5772 48.3417 19.4921 48.7243 19.5347 48.8093C19.6198 48.9794 19.79 49.1495 19.9602 49.2345C19.9177 49.107 19.9177 48.9794 19.9602 48.8519C20.1305 48.1291 20.7263 47.4488 21.4498 47.2362C21.5349 47.1937 21.62 47.2362 21.62 47.3213C21.6626 47.4063 21.62 47.4913 21.5349 47.4913C20.8965 47.7039 20.3858 48.2566 20.2582 48.8944C20.2582 48.9794 20.2156 49.0644 20.2582 49.107C20.3858 49.3621 20.7689 49.5321 21.237 49.6597C21.237 49.6172 21.1945 49.5747 21.1945 49.5747C21.1519 49.3621 21.1519 49.1495 21.1519 48.9794C21.1519 48.8519 21.1519 48.6818 21.237 48.5117C21.3221 48.1716 21.62 47.9165 22.0031 47.7889C22.301 47.7039 22.5989 47.6614 23.0245 47.7039C23.1096 47.7039 23.1522 47.7889 23.1522 47.874C23.1522 47.959 23.067 48.0015 22.9819 48.0015C22.6415 47.959 22.3435 47.959 22.1308 48.044C21.8328 48.1291 21.62 48.3417 21.5775 48.5968C21.5349 48.7243 21.5349 48.8519 21.5349 48.9794C21.5349 49.1495 21.5349 49.3196 21.5775 49.4896C21.62 49.5747 21.6626 49.7022 21.7903 49.7447C22.1308 49.7872 22.5138 49.8298 22.7266 49.8298H22.8543C24.0033 49.9148 25.195 49.8723 26.3441 49.8298L32.6854 49.5747C32.8982 49.5747 33.111 49.5747 33.3238 49.5321C33.3663 49.5321 33.3663 49.4896 33.4089 49.4896H33.8345C33.9622 49.4896 34.0898 49.4471 34.175 49.3621C34.3878 49.192 34.4303 48.8519 34.3452 48.5542C34.2601 48.2566 34.0047 48.044 33.7494 47.7464C32.3449 46.3434 30.8554 45.0679 29.2381 43.9199C29.153 43.8774 29.153 43.7923 29.1955 43.7073C29.2381 43.6223 29.3232 43.6223 29.4083 43.6648C31.0256 44.8553 32.5577 46.1308 33.9622 47.5338C34.2175 47.7889 34.4729 48.0866 34.6005 48.4267C34.7282 48.7243 34.6857 49.1495 34.4729 49.4471L38.1329 49.1495ZM11.2782 14.3706C11.0654 14.3706 10.8526 14.2855 10.6824 14.1155C10.4696 13.8604 10.427 13.4777 10.5547 13.2226C10.5973 13.1801 10.6824 13.1376 10.7249 13.1376C11.4484 13.3927 12.2571 13.4352 12.9806 13.2226C13.0657 13.2226 13.1508 13.2651 13.1508 13.3502C13.1508 13.4352 13.1082 13.5202 13.0231 13.5202C12.6826 13.6053 12.3422 13.6478 11.9591 13.6478C11.9166 13.9029 11.7463 14.2005 11.491 14.2855C11.491 14.3706 11.4059 14.3706 11.2782 14.3706ZM11.9591 18.1546C11.874 18.1546 11.7889 18.0696 11.7889 18.027C11.7889 17.942 11.8315 17.857 11.9166 17.857C12.0443 17.857 12.8529 17.3042 12.8954 16.7515C12.938 16.2413 12.2571 15.9437 11.6612 15.7736C11.5761 15.7311 11.5336 15.6886 11.5761 15.6036C11.6187 15.5185 11.7038 15.476 11.7463 15.5185C13.0231 15.9012 13.2359 16.4539 13.1508 16.8791C13.1082 17.5168 12.2145 18.1546 11.9591 18.1546ZM15.1511 19.8978C14.8532 20.2379 14.385 20.4505 14.0871 20.4505C13.9169 20.7056 13.6615 20.9182 13.3636 21.0457C13.2359 21.0883 13.1082 21.1308 12.9806 21.1308C12.7678 21.1308 12.5975 21.0883 12.4273 21.0032C12.3422 20.9182 12.2996 20.8332 12.3422 20.7481C12.3847 20.6631 12.4699 20.6631 12.555 20.6631C12.8529 20.8332 13.1082 20.7906 13.2785 20.7056C13.4913 20.6206 13.7041 20.4505 13.8317 20.2379C13.8317 20.2379 13.8317 20.2379 13.8317 20.1954C13.8317 20.1529 13.8743 20.1104 13.9169 20.1104C14.002 19.9403 14.002 19.5151 13.8743 19.1325C13.7892 18.9199 13.6615 18.6648 13.3636 18.5372C13.2785 18.4947 13.2359 18.4097 13.2785 18.3247C13.321 18.2396 13.4062 18.1971 13.4913 18.2396C13.7892 18.3672 14.0445 18.6223 14.1722 19.0049C14.2999 19.3876 14.3424 19.7702 14.2573 20.0679C14.4701 20.0253 14.7255 19.8978 14.9383 19.6427C14.9808 19.5576 15.066 19.4726 15.1085 19.3876C15.1085 19.3451 15.1085 19.3025 15.1511 19.3025C15.2787 19.0049 15.2362 18.6223 15.066 18.1971C15.0234 18.0696 14.7255 17.6019 14.5978 17.5593C14.5127 17.5168 14.4701 17.4318 14.5127 17.3468C14.5552 17.2617 14.6404 17.2192 14.7255 17.2617C15.0234 17.3893 15.3639 18.0696 15.3639 18.0696C15.5341 18.4947 15.5767 18.8349 15.5341 19.1325C15.7895 19.0049 16.1299 18.7498 16.3002 18.3672C16.4704 17.8995 16.2576 17.3893 15.7469 16.794C15.7043 16.7515 15.7043 16.624 15.7469 16.5815C15.7895 16.5389 15.9171 16.5389 15.9597 16.5815C16.513 17.2192 16.7258 17.7719 16.6406 18.2821C16.8534 18.1546 17.1513 17.942 17.3216 17.6019C17.4918 17.2192 17.4918 16.8366 17.2365 16.4539C17.1088 16.2838 16.896 16.1988 16.7258 16.2413C16.6406 16.2838 16.5555 16.1988 16.5555 16.1563C16.513 16.0713 16.5981 15.9862 16.6406 15.9862C16.9385 15.9012 17.3216 16.0287 17.4918 16.3264C17.8748 16.9216 17.7472 17.4318 17.5769 17.7719C17.3216 18.2396 16.8534 18.5798 16.513 18.6648C16.2576 19.1325 15.7469 19.3876 15.449 19.4726C15.2787 19.6852 15.1936 19.8127 15.1511 19.8978Z" fill="#F4EEE2"/>
<path d="M10.81 13.478C10.7675 13.6481 10.81 13.8182 10.9377 13.9457C11.0654 14.0733 11.3207 14.1583 11.491 14.0733C11.6612 13.9882 11.7463 13.8607 11.7889 13.6906C11.4484 13.6056 11.1079 13.5631 10.81 13.478Z" fill="#F4EEE2"/>
<path d="M16.6407 3.69863C16.5981 3.8687 16.4279 4.03877 16.1725 4.16632C15.8746 4.20883 15.5767 4.29387 15.2788 4.46394C15.3214 4.25135 15.3214 4.08128 15.3639 3.8687C15.4065 3.48605 15.449 3.10339 15.449 2.67822C16.513 3.18843 16.6833 3.52856 16.6407 3.69863Z" fill="#F4EEE2"/>
<path d="M9.06516 1.36042C9.66099 0.765185 10.5973 0.425049 11.8741 0.425049C11.9166 0.425049 11.9592 0.425049 11.9592 0.425049C12.8529 0.425049 14.4702 0.637634 14.9383 1.82811C14.9809 1.91314 14.9809 1.95566 15.0234 2.0407C12.938 1.95566 10.7675 1.91314 8.68213 2.0407C8.76725 1.78559 8.89492 1.57301 9.06516 1.36042Z" fill="#F4EEE2"/>
<path d="M25.7484 26.9136C25.5781 27.0411 25.3228 27.0837 25.11 27.0411C25.3228 27.5088 25.6633 28.019 25.9612 28.3592C26.3442 28.8694 26.7698 29.167 27.1528 29.2946C27.4933 29.3796 27.8338 29.3796 28.0466 29.2095C28.2593 29.0394 28.3019 28.4867 28.1317 28.2316C27.4082 27.6364 26.7272 26.9986 26.0463 26.3184C26.0463 26.5309 25.9186 26.7435 25.7484 26.9136Z" fill="#F4AF23"/>
<path d="M17.0237 32.4833C16.8534 32.1007 16.8109 31.633 16.8109 31.0378C16.7257 31.0378 16.6406 31.0378 16.5555 30.9952C16.3427 30.9102 16.1725 30.7827 16.0448 30.5701C15.9171 31.1228 15.832 31.8031 15.832 32.2707C15.832 32.5259 15.832 32.7384 15.9597 32.951C16.0448 33.1211 16.215 33.2912 16.4278 33.2486C16.5555 33.2486 16.8109 32.951 17.0237 32.4833Z" fill="#F4AF23"/>
<path d="M30.5149 18.2827C30.3873 18.1977 30.1745 18.1552 30.0042 18.2402C29.9191 18.4103 29.8766 18.5803 29.7914 18.7079C29.6212 19.048 29.451 19.3882 29.2382 19.7708C29.0679 20.0684 28.9403 20.366 28.77 20.6637C29.0254 20.7487 29.2807 20.8337 29.4935 20.9613C29.6638 21.0463 29.7914 21.1314 29.9617 21.2164L30.4298 20.3235C30.6852 19.7708 30.9405 19.3031 30.8129 18.7929C30.7703 18.5803 30.6426 18.4103 30.5149 18.2827Z" fill="#F4AF23"/>
<path d="M31.1108 19.1757C31.0683 19.6434 30.8555 20.1111 30.6427 20.4512L30.2171 21.3441C30.3873 21.4716 30.6001 21.5992 30.7704 21.7692C30.898 21.8968 30.9832 22.0243 31.0683 22.1519C32.1748 21.089 33.3239 19.9835 33.9197 18.5379C34.2602 17.6876 34.2602 16.1145 34.09 15.009C33.2388 16.4546 32.2599 17.8152 31.1108 19.1757Z" fill="#F4AF23"/>
<path d="M20.6411 32.951C20.6411 32.9084 20.6411 32.9084 20.6411 32.9084C20.5134 32.7384 20.4283 32.6108 20.3432 32.4408C20.0453 31.888 19.7048 31.2078 19.7048 30.485C19.6197 30.4425 19.5346 30.3999 19.4494 30.3574C19.2792 30.6125 18.9813 30.7826 18.5983 30.8251C18.6408 31.888 18.7685 32.951 19.5346 33.5887C19.6622 33.7163 19.8325 33.8438 19.9602 33.8013C20.3857 33.7163 20.556 33.3336 20.6411 32.951Z" fill="#F4AF23"/>
<path d="M29.7915 3.40204C28.3445 5.99557 26.6421 8.46156 24.727 10.7575C24.7695 10.8 24.8547 10.885 24.8972 10.9701C25.0675 11.2252 25.1526 11.5653 25.1526 11.8629L26.7273 10.0772C26.7698 10.0347 26.8124 9.99217 26.8549 9.94966L29.6638 5.91054C30.3022 4.97517 30.9832 3.91224 30.6853 2.84932C30.6427 2.63673 30.515 2.46666 30.3448 2.38163C30.3022 2.33911 30.2597 2.33911 30.2171 2.33911C30.1746 2.72176 30.0043 3.0619 29.7915 3.40204Z" fill="#F4AF23"/>
<path d="M25.3228 31.8458C25.4505 31.6332 25.493 31.3356 25.4079 31.1655C25.1526 31.0805 24.9398 30.9104 24.727 30.6978C24.4291 30.3577 24.2163 29.89 24.046 29.5074C23.9609 29.3373 23.8758 29.0822 23.7481 28.8271C23.7055 28.7421 23.663 28.657 23.663 28.6145C23.5779 28.7846 23.4502 28.9546 23.2374 29.0822C23.1097 29.1672 22.982 29.2097 22.8544 29.2523C22.8544 29.7199 22.982 30.2301 23.1523 30.6978C23.2374 30.9955 23.3651 31.3356 23.5353 31.5907C23.6204 31.7182 23.7481 31.8033 23.8332 31.8883C24.2163 32.1859 24.5567 32.3135 24.8546 32.271C25.0249 32.2285 25.1951 32.0584 25.3228 31.8458Z" fill="#F4AF23"/>
<path d="M17.6195 30.5276C17.5769 30.6126 17.5344 30.6977 17.4493 30.7827C17.3641 30.9102 17.1939 30.9528 17.0662 30.9953C17.0662 31.7181 17.1513 32.2708 17.4067 32.6109C17.5344 32.8235 17.7046 32.9511 17.8748 33.1211C18.0451 33.2912 18.2153 33.4187 18.3856 33.4613C18.4281 33.4613 18.5132 33.4187 18.5983 33.2912C18.726 33.1211 18.8111 32.9936 18.8111 32.9085C18.5132 32.2708 18.4281 31.5055 18.3856 30.7402C18.0876 30.7827 17.8323 30.6551 17.6195 30.5276Z" fill="#F4AF23"/>
<path d="M26.0461 30.9956C26.3441 30.9531 26.642 30.783 26.8122 30.5279C26.9824 30.2303 27.025 29.8901 26.8973 29.5075C26.5143 29.3374 26.1313 29.0398 25.7482 28.5721C25.4929 28.232 25.195 27.8068 24.9822 27.3391C24.9396 27.5517 24.8971 27.7643 24.8119 27.9343C24.6843 28.1469 24.3863 28.317 24.131 28.3595C24.0884 28.3595 24.0033 28.3595 23.9608 28.3595C24.0033 28.4871 24.0459 28.5721 24.0884 28.6997C24.1735 28.9548 24.3012 29.2099 24.3863 29.3799C24.5566 29.7626 24.7694 30.1878 25.0247 30.5279C25.2801 30.8255 25.6631 30.9956 26.0461 30.9956Z" fill="#F4AF23"/>
<path d="M21.6201 33.2063C21.7903 33.2063 22.1734 33.0787 22.2159 32.611C22.1308 32.4835 22.0031 32.3559 21.918 32.2284C21.4073 31.5056 21.0668 30.7828 20.9392 30.1025C20.8115 30.3576 20.5987 30.5277 20.3008 30.5277C20.2157 30.5277 20.088 30.5277 20.0029 30.4852C20.0454 31.0804 20.3433 31.7182 20.5987 32.1859C20.854 32.6961 21.1945 33.2063 21.6201 33.2063Z" fill="#F4AF23"/>
<path d="M22.8969 32.8239C23.1948 32.9939 23.5353 33.079 23.8332 32.9514C24.0885 32.8239 24.2162 32.6963 24.2162 32.4412C24.046 32.3562 23.8757 32.2286 23.6629 32.1011C23.5353 32.016 23.4501 31.8885 23.3225 31.7609C23.0671 31.4633 22.982 31.0807 22.8543 30.7831C22.7266 30.3154 22.5564 29.8052 22.5564 29.295C22.4713 29.295 22.3862 29.295 22.3436 29.2524C22.301 29.5501 22.1308 29.8477 21.8755 30.0177C21.7052 30.1028 21.4924 30.1453 21.2796 30.1028C21.4073 30.7405 21.7052 31.3783 22.1734 32.0586C22.3436 32.3562 22.599 32.6113 22.8969 32.8239Z" fill="#F4AF23"/>
<path d="M29.1956 17.0072C28.6424 17.9426 28.004 18.8779 27.3656 19.7708C27.621 19.9834 27.7912 20.2385 27.9189 20.5786C28.0891 20.5361 28.3019 20.5786 28.5147 20.5786C28.6849 20.281 28.8552 19.9409 29.0254 19.6007C29.1956 19.2606 29.4084 18.8779 29.5361 18.5378C29.6638 18.2827 29.7915 17.9851 29.8766 17.73C29.9617 17.4324 29.9617 17.0922 29.9617 16.7946C29.9617 16.6245 29.9617 16.4119 29.9191 16.2844C29.8766 16.1994 29.7915 16.0718 29.7063 16.0293C29.6638 16.1568 29.6212 16.2419 29.5787 16.3694C29.451 16.582 29.3233 16.7946 29.1956 17.0072Z" fill="#F4AF23"/>
<path d="M29.5785 14.3289C29.6636 14.499 29.7062 14.6691 29.7062 14.8391C29.7488 15.1367 29.7488 15.4344 29.6636 15.732C29.8339 15.7745 30.0041 15.9446 30.0892 16.1571C30.0892 16.1997 30.1318 16.2422 30.1318 16.2847C30.302 15.9871 30.5574 15.6895 30.8127 15.4344C30.8979 15.3493 30.983 15.2643 31.0681 15.1793C31.8342 14.3289 32.3874 13.3085 32.9407 12.2881C33.2386 11.7779 33.5365 11.2252 33.8344 10.715C33.9195 10.5874 34.0047 10.4599 34.0898 10.3323C34.1749 10.1622 34.3026 9.99218 34.3877 9.82211C34.3877 9.82211 34.3877 9.7796 34.4303 9.7796C34.643 9.43946 34.8133 9.09932 34.941 8.71667C35.1112 8.07892 34.8984 7.10102 34.4728 6.59082C33.3237 9.48198 31.6639 12.0755 29.5785 14.3289Z" fill="#F4AF23"/>
<path d="M28.4721 11.8202C28.3019 11.6926 28.1742 11.6926 28.0465 11.6926C27.4507 12.8406 26.7272 13.861 25.7909 14.7539C25.876 14.8814 25.9611 15.094 26.0037 15.2641C26.0888 15.6892 26.0037 16.1144 25.7484 16.412C25.9186 16.7096 26.0888 17.0498 26.2591 17.3474C27.2379 16.5396 27.7486 15.4341 28.3019 14.2436L28.4721 13.9035C28.5147 13.8185 28.5572 13.776 28.5572 13.6909V13.6484C28.5572 13.6059 28.5998 13.5634 28.5998 13.5634C28.7275 13.3083 28.8126 13.0532 28.8126 12.7556C28.8977 12.4154 28.7275 12.0328 28.4721 11.8202Z" fill="#F4AF23"/>
<path d="M34.9412 10.332C34.856 10.2045 34.7709 10.1194 34.6432 10.0769C34.5581 10.247 34.473 10.3745 34.3453 10.5446C34.2602 10.6721 34.1751 10.7997 34.1325 10.9272C33.8346 11.4374 33.5367 11.9902 33.2388 12.5004C32.6855 13.5208 32.1323 14.5412 31.3236 15.434C31.2385 15.5191 31.1534 15.6041 31.0683 15.6891C30.6852 16.1143 30.3022 16.497 30.2171 17.0072C30.2171 17.2623 30.1745 17.5174 30.132 17.7725C30.132 17.815 30.132 17.815 30.0894 17.8575C30.3022 17.8575 30.515 17.9 30.6852 17.9851C30.898 18.1551 31.0257 18.3677 31.1108 18.6653C32.5153 16.9647 33.6644 15.1789 34.6007 13.2657C35.0263 12.4579 35.4944 11.2674 34.9412 10.332Z" fill="#F4AF23"/>
<path d="M28.8126 13.9038C28.77 13.9463 28.77 14.0314 28.7275 14.0739L28.5572 14.414C28.004 15.647 27.4507 16.795 26.3867 17.6453C26.3867 17.6878 26.4293 17.6878 26.4293 17.7303C26.5569 17.9854 26.6846 18.2831 26.5995 18.5807C26.5569 18.7082 26.5144 18.7933 26.4293 18.8783C26.3867 18.9208 26.3442 19.0058 26.3442 19.0484C26.3016 19.1334 26.3016 19.261 26.259 19.346C26.5569 19.346 26.8123 19.3885 27.0677 19.5586C27.706 18.6657 28.3019 17.7729 28.8977 16.8375C29.0254 16.6249 29.153 16.4123 29.2382 16.1997C29.4084 15.7746 29.4935 15.3069 29.4084 14.8392C29.3658 14.4565 29.153 14.0314 28.8126 13.9038Z" fill="#F4AF23"/>
<path d="M33.0259 0.680692C32.7705 0.765726 32.6003 1.02083 32.4726 1.23341C31.9193 2.16879 31.3661 3.27423 30.8979 4.50722C30.6851 5.05994 30.3021 5.61267 29.9616 6.12287L27.5358 9.60927C27.6209 9.60927 27.706 9.56675 27.7911 9.60927C28.2167 9.65178 28.4721 10.077 28.4721 10.4596C28.5146 10.8423 28.3444 11.1824 28.2167 11.4375C28.2167 11.4375 28.2167 11.4375 28.2167 11.48C28.3444 11.48 28.4721 11.5225 28.5997 11.6076C30.7277 8.80144 32.8982 5.91028 33.7494 2.38137C33.8345 2.04124 33.9196 1.61607 33.7919 1.23341C33.6643 0.85076 33.3238 0.595658 33.0259 0.680692Z" fill="#F4AF23"/>
<path d="M23.2798 8.97154C23.1522 9.01406 23.067 9.05658 22.9819 9.14161C22.6415 9.35419 22.3861 9.69433 22.1733 9.99195C21.8328 10.4596 21.1945 11.395 20.5986 12.3304C20.0028 13.2232 19.407 14.1161 19.0665 14.5838C19.1091 14.6688 19.1091 14.7539 19.1516 14.8389C19.1942 14.9664 19.2367 15.094 19.3219 15.179C19.3219 15.2215 19.3644 15.2215 19.3644 15.2641C19.407 15.3491 19.4495 15.4341 19.4921 15.5192C19.5346 15.5617 19.5346 15.6042 19.5772 15.6467C19.6198 15.7317 19.6623 15.7743 19.7049 15.8593C19.7474 15.9443 19.79 16.0294 19.8326 16.0719C19.8326 16.1144 19.8751 16.1569 19.8751 16.1569C20.5135 15.094 22.6415 12.4579 22.8968 12.1603C23.2798 11.6926 23.6203 11.1399 23.9182 10.5022C24.3438 9.65181 24.3864 9.09909 24.0459 8.88651C23.8331 8.84399 23.6203 8.88651 23.4075 8.92902C23.365 8.97154 23.3224 8.97154 23.2798 8.97154Z" fill="#F4AF23"/>
<path d="M29.3657 0.680784C29.0253 0.59575 28.6422 0.723301 28.3018 1.06344C28.0464 1.36106 27.8762 1.74371 27.7059 2.08385V2.12636C26.642 4.42228 25.2801 6.59065 23.7054 8.58895C23.8756 8.58895 24.0459 8.63146 24.2161 8.7165C24.7694 9.09915 24.5566 9.90697 24.3438 10.4172C24.4289 10.4597 24.514 10.5022 24.5991 10.5447C26.4717 8.29133 28.1741 5.82534 29.6211 3.2318C29.8764 2.76412 30.1318 2.29643 30.1318 1.78623C30.0892 1.36106 29.8339 0.808335 29.3657 0.680784Z" fill="#F4AF23"/>
<path d="M27.7061 9.86475H27.6636C27.4508 9.86475 27.2805 9.9923 27.1103 10.1624L27.0677 10.2049C27.0677 10.2474 27.0252 10.2474 27.0252 10.2474L26.9826 10.2899L24.2163 13.3511C24.5142 13.1811 24.8972 13.2236 25.1526 13.4787C25.3654 13.6913 25.4505 14.0314 25.3228 14.329C25.4079 14.3715 25.493 14.4566 25.5782 14.5416C26.557 13.6062 27.3231 12.5008 27.9189 11.2678C28.0466 11.0127 28.1743 10.7151 28.1317 10.4175C28.1317 10.1624 27.9615 9.86475 27.7061 9.86475Z" fill="#F4AF23"/>
<path d="M34.0047 2.46655C33.111 6.03798 30.9405 8.92914 28.8125 11.6927C29.1104 11.9904 29.1956 12.458 29.153 12.7982C29.1104 13.0958 29.0253 13.3509 28.9402 13.606C29.153 13.691 29.3232 13.8186 29.4509 14.0312C31.7917 11.4376 33.5791 8.46145 34.7708 5.10261C34.9836 4.54989 35.1538 3.91213 35.0261 3.31689C34.8559 2.80669 34.4729 2.50907 34.0047 2.46655Z" fill="#F4AF23"/>
<path d="M24.6418 11.14C24.5992 11.0549 24.5141 10.9699 24.4716 10.9274C24.3864 10.8424 24.3013 10.7998 24.1737 10.7573V10.7998C23.8757 11.4376 23.4927 12.0328 23.1097 12.5005C22.982 12.5856 20.471 15.6468 20.0029 16.5822C20.0454 16.6672 20.088 16.7097 20.1305 16.7947C20.1305 16.7947 20.1305 16.8373 20.1731 16.8373C20.1731 16.8798 20.2157 16.8798 20.2157 16.9223C20.2157 16.9223 20.2157 16.9648 20.2582 16.9648C20.3008 17.0498 20.3433 17.1349 20.3859 17.2199C20.3859 17.2624 20.4285 17.3049 20.4285 17.3049C20.471 17.39 20.5136 17.475 20.5561 17.56C20.5561 17.6026 20.5987 17.6451 20.5987 17.6451C20.5987 17.6876 20.6413 17.6876 20.6413 17.7301C20.6838 17.8151 20.7264 17.9002 20.7264 17.9852C21.152 16.3271 22.3436 15.009 23.4076 13.8185L24.8546 12.2454C24.8972 11.8628 24.8546 11.4376 24.6418 11.14Z" fill="#F4AF23"/>
<path d="M26.174 17.8578C25.9612 17.3901 25.7058 16.9224 25.4505 16.4972C25.4079 16.4547 25.4079 16.3697 25.4505 16.3272C25.6633 16.0721 25.7909 15.7319 25.7058 15.3493C25.6207 14.9666 25.4079 14.669 25.0674 14.5414C25.0249 14.5414 24.9823 14.4989 24.9823 14.4564C24.9823 14.4139 24.9823 14.3714 24.9823 14.3289C25.11 14.1588 25.0674 13.8612 24.9398 13.6911C24.7695 13.521 24.5142 13.521 24.3014 13.6486C24.2162 13.6911 24.1311 13.6911 24.0886 13.6061C24.046 13.5635 24.046 13.521 24.046 13.4785L23.6204 14.0312C22.599 15.1792 21.4074 16.4972 21.0243 18.0704C20.9818 18.1554 20.9818 18.2829 20.9818 18.368L20.8541 18.7081C20.8115 18.9632 20.769 19.2183 20.769 19.5159C20.6838 20.3238 20.5987 21.1316 20.2157 21.8544C19.4922 23.2149 17.9175 23.8952 16.6407 24.4479C16.4705 24.5329 16.3003 24.618 16.2151 24.703C16.1726 24.788 16.13 24.8731 16.13 25.0006C16.0024 25.7659 16.0023 26.5738 16.0023 27.3391C16.0023 27.6792 16.0024 28.0193 16.1726 28.2319C16.2577 28.3595 16.3854 28.402 16.5131 28.402C16.5982 28.402 16.6833 28.3595 16.7684 28.2319C16.811 28.1894 16.8535 28.1469 16.9386 28.1469C16.9812 28.1469 17.0663 28.1894 17.0663 28.2744C17.1089 28.487 17.3642 28.6571 17.577 28.6996C17.6622 28.6996 17.8324 28.7421 17.9175 28.5721C17.9601 28.5295 17.9601 28.487 18.0026 28.487C18.0026 28.487 18.0026 28.487 18.0452 28.487C18.0877 28.487 18.1303 28.487 18.1303 28.5295C18.3005 28.6996 18.5985 28.7421 18.8964 28.6146C19.1943 28.487 19.3645 28.2744 19.4071 28.0193C19.4071 27.9768 19.4496 27.9343 19.4922 27.8918C19.5348 27.8493 19.5773 27.8493 19.6199 27.8918C19.8752 27.9768 20.1731 27.9343 20.4285 27.7217C20.6838 27.5091 20.8115 27.2115 20.7264 26.9564C20.7264 26.9139 20.7264 26.8289 20.8115 26.7863C20.8541 26.7438 20.9392 26.7438 20.9818 26.7863C21.152 26.9139 21.3648 26.8714 21.535 26.7438C21.6627 26.6588 21.8329 26.4462 21.7478 26.2761C21.7478 26.2336 21.7478 26.1486 21.7904 26.1061C21.8329 26.0635 21.9181 26.0635 21.9606 26.1061C22.2585 26.2761 22.599 26.1911 22.8118 26.021C23.0246 25.851 23.2374 25.5959 23.1948 25.2557C23.1948 25.1707 23.2374 25.1282 23.2799 25.0857C23.3225 25.0431 23.4076 25.0857 23.4502 25.1282C23.5353 25.2557 23.7055 25.2557 23.7907 25.2557C24.0035 25.2132 24.2162 25.0857 24.3014 24.9156C24.429 24.6605 24.429 24.3204 24.3439 23.9802V23.9377C24.3439 23.8527 24.3014 23.7676 24.3014 23.6826C24.3014 23.6401 24.3014 23.555 24.3439 23.5125H24.3865L24.727 23.555C24.8972 23.47 25.0674 23.2574 25.0674 23.0874C25.11 22.9173 25.0674 22.7472 25.0674 22.5772C25.0674 22.3646 25.0249 22.1095 25.11 21.8544C25.11 21.8544 25.11 21.8544 25.11 21.8118C25.1525 21.5993 25.2802 21.4717 25.3653 21.3016C25.4505 21.1741 25.493 21.0891 25.5356 20.9615C25.6207 20.7064 25.6207 20.4088 25.4079 20.2812C25.3653 20.2387 25.3228 20.1962 25.3228 20.1537C25.3228 20.1112 25.3653 20.0261 25.4079 20.0261C25.7058 19.8986 25.7909 19.8135 25.8335 19.6435C25.9612 19.6435 25.9612 19.5584 25.9612 19.4734C25.9612 19.3033 26.0037 19.1333 26.0463 18.9632C26.0888 18.8782 26.1314 18.8357 26.174 18.7506C26.2165 18.6656 26.2591 18.5806 26.3016 18.4955C26.3868 18.3255 26.2591 18.0704 26.174 17.8578ZM23.1523 21.2166C23.1097 21.3867 23.0672 21.5142 23.0246 21.6843C23.0246 21.7268 22.982 21.8118 22.982 21.8544C22.9395 21.9394 22.8969 22.0244 22.8969 22.1095C22.8544 22.1945 22.8544 22.237 22.8118 22.3221C22.7692 22.4071 22.7692 22.4496 22.7267 22.5346C22.6841 22.6197 22.6416 22.7047 22.599 22.7897C22.599 22.8323 22.5564 22.8323 22.5564 22.8748C22.216 23.385 21.8755 23.8101 21.535 24.2353C21.3648 24.4479 21.152 24.6605 20.9392 24.8306C20.1731 25.5108 19.0666 26.1486 17.9175 26.1486C17.4919 26.1486 17.1089 26.0635 16.7259 25.8935C16.6407 25.851 16.6407 25.7659 16.6407 25.6809C16.6833 25.5959 16.7684 25.5959 16.8535 25.5959C18.2154 26.2336 19.7901 25.4683 20.7264 24.618C20.8541 24.4904 20.9818 24.3629 21.1094 24.2353C21.2371 24.1078 21.3222 23.9802 21.4499 23.8527C21.4925 23.8101 21.535 23.7676 21.5776 23.6826C21.6627 23.5976 21.7053 23.5125 21.7904 23.4275C21.8329 23.385 21.8755 23.2999 21.9181 23.2574C21.9606 23.1724 22.0457 23.0874 22.0883 23.0023C22.1309 22.9598 22.1734 22.8748 22.216 22.8323C22.2585 22.7472 22.3011 22.6622 22.3436 22.5772C22.3862 22.4921 22.3862 22.4496 22.4288 22.3646C22.4713 22.2795 22.5139 22.152 22.5564 22.067C22.599 22.0244 22.599 21.9394 22.6416 21.8969C22.6841 21.7693 22.7267 21.6843 22.7692 21.5567C22.7692 21.5142 22.8118 21.4292 22.8118 21.3867C22.8544 21.2166 22.8969 21.0465 22.9395 20.8765L23.0246 20.4938C23.0672 20.2812 23.0672 20.1112 23.1097 19.8986C23.1097 19.8561 23.1097 19.8135 23.1097 19.771C23.1097 19.601 23.1523 19.3884 23.1523 19.2183C23.1523 19.0057 23.1523 18.7931 23.1523 18.5806C23.1097 18.0278 23.0246 17.4751 22.8544 16.9649C22.8118 16.8799 22.8544 16.7948 22.9395 16.7948C23.0246 16.7523 23.1097 16.7948 23.1097 16.8799C23.2374 17.22 23.3225 17.6027 23.3651 17.9853C23.4076 18.1979 23.4076 18.4105 23.4502 18.6231C23.4502 18.6656 23.4502 18.7081 23.4502 18.7506C23.4502 18.8357 23.4502 18.9207 23.4502 19.0057C23.4502 19.0908 23.4502 19.1333 23.4502 19.2183C23.4502 19.3033 23.4502 19.3884 23.4502 19.4309C23.4502 19.5584 23.4502 19.686 23.4076 19.8135C23.4076 19.8561 23.4076 19.9411 23.4076 19.9836C23.4076 20.0687 23.3651 20.1962 23.3651 20.2812C23.3651 20.3238 23.3651 20.3663 23.3225 20.4088C23.2799 20.5363 23.2799 20.7064 23.2374 20.834L23.1523 21.2166Z" fill="#F4AF23"/>
<path d="M30.5149 21.9819C30.3447 21.8118 30.1745 21.6842 29.9617 21.5992C29.9191 21.5567 29.8766 21.5567 29.834 21.5142C29.7914 21.5142 29.7914 21.4717 29.7489 21.4717C29.6212 21.3866 29.451 21.3016 29.2807 21.2166C28.7275 20.9189 28.2593 20.7914 27.9188 20.8339C27.9188 20.8764 27.9188 20.9615 27.9614 21.004C28.004 21.2591 27.9614 21.5567 27.9188 21.8118L27.8763 22.2795C27.9188 22.322 28.004 22.322 28.0891 22.3645C28.5572 22.5771 29.2382 22.8747 29.5361 23.1298C29.834 23.4274 30.0468 23.7251 30.217 24.1077C30.6001 23.9802 31.0682 23.5125 31.0682 23.1723C31.1108 22.7472 30.898 22.322 30.5149 21.9819Z" fill="#F4AF23"/>
<path d="M29.5785 27.0412C29.536 26.8286 29.4934 26.616 29.3658 26.446C29.3232 26.4034 29.3232 26.3609 29.2806 26.3184C29.2806 26.3184 29.2381 26.2334 29.153 26.1483C28.9827 25.9358 28.7699 25.7232 28.5146 25.4681L27.6634 24.7028C27.5357 24.5752 27.3655 24.4477 27.1952 24.3201L27.1527 24.2776C27.2378 24.5752 27.2804 24.9153 27.1101 25.2555C26.9399 25.6381 26.5569 25.8932 26.1738 25.9783C26.8548 26.6585 27.5783 27.3388 28.3443 27.9766C28.5997 28.1466 29.0253 28.1041 29.2381 27.8915C29.4934 27.7215 29.6211 27.3813 29.5785 27.0412Z" fill="#F4AF23"/>
<path d="M27.7061 21.0464C27.7061 20.9613 27.6635 20.8763 27.6635 20.7913C27.5784 20.4937 27.4082 20.196 27.1528 20.026C27.0677 19.9834 27.0677 19.9409 26.9826 19.8984C26.8124 19.7709 26.557 19.6858 26.2591 19.7283C26.2591 19.7709 26.2591 19.8134 26.2165 19.8559C26.174 20.111 26.0463 20.2385 25.8335 20.3236C26.0037 20.5362 26.0037 20.9188 25.8761 21.1739C25.8335 21.3015 25.7484 21.429 25.6633 21.5566C25.5782 21.7266 25.493 21.8542 25.4505 22.0243C25.4079 22.1943 25.4079 22.4069 25.4505 22.6195C25.4505 22.7896 25.493 23.0022 25.4505 23.1722C25.4079 23.4698 25.1951 23.7675 24.9398 23.895C24.8546 23.9375 24.7695 23.9375 24.6844 23.9375C24.7695 24.3627 24.7695 24.7454 24.5993 25.0855C24.4716 25.3406 24.1737 25.5532 23.8758 25.5957C23.7481 25.5957 23.663 25.5957 23.5353 25.5532C23.4928 25.8508 23.3225 26.1059 23.0246 26.3185C22.7267 26.5311 22.3862 26.6161 22.0883 26.5311C22.0458 26.7437 21.9181 26.9562 21.7053 27.0838C21.4925 27.2113 21.2797 27.2539 21.0669 27.2113C21.0669 27.509 20.8967 27.8066 20.6413 28.0192C20.3434 28.2743 20.0029 28.3593 19.705 28.3168C19.6199 28.6144 19.3645 28.827 19.0666 28.9545C18.7261 29.0821 18.3857 29.0821 18.1303 28.912C18.0452 28.9971 17.875 29.0396 17.7047 29.0396C17.6622 29.0396 17.6196 29.0396 17.5771 29.0396C17.3217 28.9971 17.0663 28.827 16.9387 28.6144C16.8536 28.6994 16.7259 28.6994 16.5982 28.742C16.3854 28.742 16.2152 28.6569 16.0449 28.5294C16.0449 28.5719 16.0449 28.6569 16.0449 28.6994C16.0024 29.0396 15.9598 29.3797 16.0024 29.6348C16.0449 30.0175 16.2152 30.5702 16.6408 30.6977C16.8536 30.7828 17.1089 30.6552 17.2366 30.5277C17.3217 30.4426 17.4068 30.3151 17.3643 30.145C17.3217 30.06 17.3643 29.9749 17.4494 29.9324C17.5345 29.8899 17.6196 29.9324 17.6622 30.0175C17.8324 30.3576 18.2154 30.4851 18.5134 30.4851C18.8113 30.4851 19.1943 30.3576 19.3645 30.0175C19.3645 29.9749 19.4071 29.9324 19.4497 29.9324C19.4922 29.9324 19.5348 29.9324 19.5773 29.9749C19.6199 30.0175 19.705 30.06 19.7901 30.1025C19.8327 30.145 19.8752 30.145 19.9178 30.145C19.9178 30.145 20.0029 30.1875 20.088 30.23H20.1306C20.2157 30.2726 20.3008 30.2726 20.386 30.2726C20.5987 30.2726 20.8115 30.0175 20.8115 29.8049C20.8115 29.7624 20.8541 29.6773 20.8967 29.6773C20.9392 29.6348 21.0243 29.6773 21.0669 29.7198C21.0669 29.7198 21.0669 29.7198 21.1095 29.7624C21.1095 29.7624 21.2371 29.8474 21.2797 29.8474C21.3222 29.8474 21.3648 29.8899 21.4074 29.8899C21.535 29.8899 21.6627 29.8899 21.7904 29.8049C22.0458 29.6773 22.1734 29.3797 22.1309 29.0821C22.1309 29.0396 22.1309 28.9545 22.1734 28.912C22.216 28.8695 22.3011 28.8695 22.3437 28.912C22.6416 29.0821 22.9395 28.9971 23.1523 28.827C23.3651 28.6994 23.5779 28.4018 23.5353 28.1042C23.5353 28.0617 23.5353 28.0617 23.5353 28.0192L23.5779 27.9766C23.6204 27.9766 23.6204 27.9766 23.663 27.9766C23.7056 27.9766 23.7056 27.9766 23.7481 28.0192C23.8332 28.1042 23.9609 28.1042 24.046 28.1042C24.2163 28.0617 24.4291 27.9766 24.5142 27.8066C24.6844 27.509 24.6844 27.1688 24.6419 26.7437C24.6419 26.7011 24.6419 26.7011 24.6419 26.6586C24.6419 26.6161 24.6844 26.6161 24.6844 26.6161C24.727 26.6161 24.727 26.6161 24.7695 26.6161C24.8121 26.6161 24.8121 26.6161 24.8547 26.6586C25.0249 26.8287 25.3228 26.8712 25.5356 26.7437C25.7484 26.6161 25.7909 26.276 25.6633 26.0634C25.6207 26.0209 25.6207 25.9358 25.6633 25.8933C25.7058 25.8508 25.7484 25.8083 25.7909 25.8083C26.2165 25.8508 26.6421 25.5957 26.8124 25.213C27.0252 24.7454 26.7272 24.1926 26.6421 24.0226C26.5996 23.98 26.5996 23.895 26.6421 23.8525C26.6847 23.81 26.7698 23.7675 26.8124 23.81C26.9826 23.895 27.1954 23.7675 27.3231 23.5974C27.4507 23.3848 27.4933 23.1297 27.4933 22.9171L27.621 21.8542C27.7061 21.5566 27.7487 21.3015 27.7061 21.0464Z" fill="#F4AF23"/>
<path d="M30.1318 24.8728C30.1318 24.7453 30.0892 24.6602 30.0467 24.5327C30.0467 24.4902 30.0041 24.4477 30.0041 24.4051C30.0041 24.3626 29.9616 24.2776 29.9616 24.2776C29.9616 24.2351 29.919 24.1926 29.919 24.15C29.7913 23.8524 29.5785 23.5548 29.3657 23.3422C29.1529 23.1296 28.4294 22.832 28.0464 22.6194C28.0039 22.6194 27.9613 22.5769 27.9187 22.5769L27.8762 22.8745C27.8336 23.1296 27.7911 23.4272 27.6634 23.6823C27.5783 23.8099 27.4506 23.9375 27.3229 23.98C27.3655 24.0225 27.408 24.065 27.4506 24.065C27.6208 24.1926 27.7911 24.3201 27.9613 24.4477L28.8125 25.213C29.0678 25.4681 29.3232 25.7232 29.536 25.9783C29.7488 25.9783 30.0041 25.8507 30.0892 25.6381C30.1318 25.5106 30.1744 25.213 30.1318 24.8728Z" fill="#F4AF23"/>
<path d="M8.5119 3.2742C8.68214 4.80481 9.661 6.12284 10.9803 6.59053C12.3848 7.10073 14.0871 6.46298 14.683 5.22998C14.8958 4.80481 14.9809 4.29461 15.066 3.82692C15.1511 3.31672 15.1937 2.80651 15.1086 2.33883C12.9806 2.21128 10.725 2.21128 8.59702 2.33883C8.51191 2.63645 8.46935 2.93407 8.5119 3.2742Z" fill="#F4AF23"/>
<path d="M38.5567 40.347C38.1311 39.4966 37.5778 38.4762 36.8117 37.7109C36.2159 37.1157 35.535 36.6055 34.854 36.1378C34.471 35.8402 34.0454 35.5851 33.6624 35.2449C33.6198 35.2024 29.449 31.9286 28.7681 31.5459C28.385 31.2908 27.8743 30.9082 27.4913 30.6106C27.4487 30.4405 27.4062 30.313 27.3636 30.2279C27.4062 30.0579 27.4062 29.9303 27.3636 29.7602C27.4062 29.7602 27.4487 29.7602 27.4913 29.7602C27.7892 29.7602 28.0446 29.6752 28.2574 29.5051C28.5553 29.2925 28.6404 28.8674 28.6404 28.5272C28.9809 28.5698 29.3213 28.4422 29.5767 28.2296C29.9172 27.932 30.0448 27.4643 30.0023 26.9966C29.9597 26.784 29.9172 26.5715 29.8321 26.4014C30.0448 26.3164 30.2576 26.1463 30.3853 25.9337C30.5556 25.6361 30.6407 25.2534 30.5556 24.7857C30.5556 24.6582 30.513 24.5732 30.4704 24.4456C30.9811 24.233 31.4919 23.6803 31.4919 23.1276C31.4919 22.8725 31.4493 22.6599 31.3642 22.4048C32.3856 21.4269 33.6624 20.1939 34.3008 18.6208C34.7263 17.6004 34.6838 15.7296 34.471 14.5391C34.6838 14.1565 34.854 13.8164 35.0243 13.4762C35.4924 12.5408 36.0031 11.1803 35.3222 10.1174C35.237 9.98983 35.1094 9.86227 35.0243 9.77724C35.1945 9.4371 35.3222 9.182 35.4073 8.88438C35.6626 8.07656 35.3647 6.9286 34.8115 6.29085C34.9817 5.90819 35.1094 5.56806 35.1945 5.27044C35.4073 4.6752 35.6201 3.95241 35.4498 3.22962C35.2796 2.59187 34.8115 2.1667 34.2582 2.08166C34.3008 1.78404 34.3433 1.40139 34.2156 1.06125C34.0454 0.551049 33.4921 0.125879 32.9389 0.25343C32.5558 0.380981 32.3005 0.6786 32.1302 1.01874C31.7898 1.52894 31.4919 2.12418 31.1514 2.76193V2.71942C31.0663 2.4218 30.8535 2.12418 30.5981 1.99663C30.5556 1.99663 30.513 1.95411 30.4704 1.95411C30.4704 1.91159 30.4704 1.86908 30.4704 1.82656C30.513 1.1888 30.13 0.466015 29.449 0.25343C28.8532 0.0833616 28.2999 0.423498 28.002 0.763634C27.6615 1.10377 27.4913 1.52894 27.3211 1.91159L27.2785 1.95411C26.172 4.33506 24.8101 6.54595 23.1077 8.54425C22.98 8.58676 22.8098 8.6718 22.7247 8.75683C22.3417 9.01193 22.0438 9.39459 21.7884 9.73472C21.4479 10.2024 20.8095 11.1803 20.1712 12.0732C19.7456 12.7534 19.2774 13.4337 18.9369 13.9014C18.9369 13.8589 18.8944 13.7738 18.8944 13.7313V13.6038C18.8518 13.4762 18.8518 13.3487 18.8518 13.2211V13.1361C18.8518 12.966 18.8518 12.8385 18.8518 12.7109C19.703 11.9456 20.2988 11.0102 20.8521 9.86228C21.4905 8.62928 21.7033 7.60887 21.5756 6.6735C21.4479 5.69561 20.8521 4.71772 20.0009 4.12248C19.2349 3.56976 16.6813 2.33676 15.4897 2.20921C15.4897 2.1667 15.4897 2.12418 15.4471 2.08166V2.03914C15.4045 1.91159 15.362 1.78404 15.3194 1.65649C14.7236 0.210913 12.9361 -0.00167244 11.9147 -0.0441895C10.4677 -0.0441895 9.36116 0.338464 8.72278 1.06125C8.46742 1.31635 8.29718 1.61397 8.16951 1.95411C8.16951 1.99663 8.12695 2.03914 8.12695 2.12418V2.1667C8.08439 2.59187 8.04183 2.97452 8.08439 3.35717C8.25463 5.05785 9.36116 6.50343 10.8507 7.05615C11.2338 7.1837 11.6168 7.26874 11.9998 7.26874C13.3192 7.26874 14.5534 6.54595 15.0641 5.48302C15.1492 5.35547 15.1917 5.1854 15.2343 5.01534C15.4471 4.97282 15.8727 4.84527 16.2557 4.63268C17.4048 4.4201 18.256 4.84527 18.6816 5.10037C19.6604 5.69561 20.1712 6.6735 20.1712 7.31125C20.1712 9.86228 17.2346 10.3725 13.1064 11.0528C12.6808 11.1378 12.2552 11.1803 11.8296 11.2653C11.2338 11.3504 10.2123 11.648 9.87187 12.5408C9.87187 12.5834 9.82931 12.6259 9.82931 12.6684C9.78675 12.7534 9.78675 12.7959 9.74419 12.881C9.70163 12.966 9.61651 13.0085 9.5314 13.0511C9.27604 13.2211 9.02069 13.3062 8.72278 13.4337C8.08439 13.7313 7.446 13.9864 7.10553 14.6667C6.63738 15.6446 7.27577 16.75 7.91415 17.4728C7.99927 17.5579 8.08439 17.6854 8.25463 17.7704C8.55254 17.898 8.89301 17.7704 9.23348 17.3878C9.5314 17.0476 9.95699 16.75 10.5103 16.5374C10.8082 16.4099 11.0635 16.3674 11.2338 16.4524C11.3189 16.4949 11.404 16.58 11.4466 16.665C11.5742 16.9201 11.3189 17.2602 11.0635 17.4303C10.7656 17.6429 10.4251 17.7279 9.99955 17.6854H9.87187C9.65907 17.6429 9.44628 17.6429 9.23348 17.6854C8.93557 17.7704 8.5951 18.0255 8.5951 18.3657C8.5951 19.0885 8.85045 19.5136 9.36116 19.6412C9.61651 19.6837 9.82931 19.6837 10.0421 19.6412C10.2123 19.6412 10.3826 19.5987 10.5528 19.6412C11.1912 19.7262 11.5742 20.534 11.5742 21.2143C11.6168 22.4473 10.9358 23.5953 10.2549 24.7007V24.6582C10.1698 24.8283 10.0421 24.9983 9.95699 25.1684C9.27604 26.3164 8.72278 27.5919 8.29718 28.8674C7.95671 29.9728 7.57368 31.3759 7.99927 32.7789C8.04183 32.864 8.08439 32.9915 8.08439 33.0766C8.16951 33.3742 8.29718 33.6293 8.25463 33.9269C8.25463 34.1395 8.16951 34.3096 8.08439 34.5221C7.6588 35.6701 7.10553 36.9881 6.50971 38.3062C5.95644 39.5817 5.36061 40.8997 4.93502 42.0902C4.89246 42.2602 4.80734 42.4728 4.72223 42.6854V42.7279C4.46687 43.4932 4.1264 44.5136 3.78593 44.9388C3.44546 45.364 2.93475 45.7466 2.4666 46.0868C2.33892 46.1718 2.21124 46.2994 2.08357 46.3844C2.04101 46.4269 1.87077 46.4694 1.78565 46.5119C1.18983 46.7245 0.210969 47.0221 -0.00182633 47.915C-0.129503 48.4252 0.125851 48.8504 0.636559 49.063C0.806795 49.233 1.10471 49.3181 1.48774 49.3181C1.78565 49.7007 2.4666 49.7857 2.89219 49.7432C4.1264 49.9558 5.48829 49.9133 6.7225 49.6582C6.80762 49.6582 6.89274 49.5732 6.9353 49.4881C7.99927 46.682 8.97813 44.5562 9.78675 43.1956C9.95699 42.898 10.1698 42.5579 10.3826 42.1752C10.8507 41.3674 11.3614 40.4745 11.787 39.8793C12.0849 39.4541 12.3829 38.9864 12.6808 38.3912C15.6599 41.6225 22.1714 42.7704 24.8101 42.813C25.3208 44.046 26.0869 45.2364 27.1508 46.2568C25.5762 46.0868 24.0015 46.0868 22.597 46.1718C22.1289 46.1718 21.6182 46.2568 21.15 46.3419L20.8095 46.3844C20.0435 46.5119 19.6179 47.1072 19.4051 47.4473C19.1923 47.83 19.0221 48.3827 19.1072 48.6803C19.2774 49.1055 19.703 49.4031 20.1712 49.4031C20.767 49.8708 21.9586 49.9558 22.597 49.9558H22.7247C23.1503 49.9983 23.6184 49.9983 24.1291 49.9983C24.8526 49.9983 25.5336 49.9558 26.2145 49.9558L32.6409 49.7007C32.9389 49.7007 33.2368 49.6582 33.5772 49.6582C33.6624 49.6582 33.7049 49.6582 33.79 49.6157L38.1311 49.5306C38.3864 49.5306 38.6418 49.5306 38.9397 49.4456C39.4504 49.2755 39.9185 48.8929 40.1739 48.2977C40.3867 47.8725 40.4718 47.3623 40.4718 46.7245C40.4718 44.4711 39.5355 42.3028 38.5567 40.347ZM1.01959 47.4473C0.806795 47.7024 0.679118 47.9575 0.551441 48.2551C0.551441 48.1701 0.551441 48.1276 0.551441 48.0425C0.636559 47.7874 0.764236 47.6174 1.01959 47.4473ZM34.6838 48.1276C34.5561 47.7449 34.3008 47.4473 34.0028 47.1922C32.5984 45.7892 31.0663 44.4711 29.449 43.3232C29.3213 43.2381 29.1511 43.2806 29.066 43.3657C28.9809 43.4932 29.0234 43.6633 29.1085 43.7483C30.6832 44.8963 32.2154 46.2143 33.6198 47.5749C33.8752 47.83 34.088 48.0425 34.1731 48.2977C34.2582 48.5102 34.2156 48.8079 34.0454 48.9354C33.9603 48.9779 33.8752 49.0204 33.7475 49.0204H33.3219C33.2793 49.0204 33.2368 49.0204 33.1942 49.063C32.9814 49.063 32.8112 49.063 32.5984 49.1055L26.2571 49.3606C25.108 49.4031 23.9163 49.4456 22.7673 49.3606H22.6396C22.4268 49.3606 22.0863 49.3181 21.7458 49.2755C21.6607 49.233 21.6182 49.1905 21.6182 49.1055C21.5756 48.9779 21.5756 48.8079 21.6182 48.6378C21.6182 48.5102 21.6182 48.3827 21.6607 48.2977C21.7458 48.0851 21.9161 47.915 22.1714 47.83C22.2991 47.7874 22.4693 47.7449 22.6396 47.7449C22.7247 47.7449 22.8524 47.7449 22.9801 47.7449C23.0652 47.7449 23.1077 47.7449 23.1928 47.7024C23.2354 47.6599 23.278 47.5749 23.3205 47.5323C23.3205 47.4473 23.3205 47.4048 23.278 47.3198C23.2354 47.2772 23.1503 47.2347 23.1077 47.2347C22.6821 47.1922 22.3417 47.1922 22.0438 47.3198C21.6607 47.4473 21.3202 47.7449 21.1926 48.1276C21.15 48.2977 21.1075 48.4677 21.1075 48.6378C21.1075 48.8079 21.1075 48.9779 21.1075 49.148C20.767 49.063 20.5116 48.8929 20.4265 48.7228C20.4265 48.7228 20.4265 48.6803 20.4265 48.5953C20.5542 48 21.0649 47.4898 21.6182 47.2772C21.7458 47.2347 21.831 47.0647 21.7884 46.9371C21.7458 46.8521 21.7033 46.8096 21.6182 46.767C21.9586 46.7245 22.2991 46.682 22.6396 46.6395C24.2994 46.597 26.0869 46.5545 27.8743 46.8521C27.9595 46.9371 28.0446 46.9371 28.1722 46.8946C28.385 46.9371 28.5553 46.9796 28.7681 47.0221H28.8106C29.6193 47.7449 30.3853 48.1701 31.1939 48.2977C31.3642 48.3402 31.6195 48.2551 31.7472 48.0851C31.8323 47.9575 31.7898 47.7874 31.7047 47.7024C31.6621 47.6599 31.577 47.6174 31.5344 47.6174C31.4493 47.6174 31.4067 47.6174 31.3216 47.6599C31.2791 47.7024 31.2365 47.7449 31.2365 47.7874C29.8746 47.5749 28.8106 46.3844 27.9169 45.2789C27.0232 44.1735 26.2145 43.0681 25.9592 41.7926C25.7889 40.7721 26.0017 39.6667 26.5976 38.8164C27.1934 37.966 28.0871 37.3283 29.1085 37.1157C29.6193 36.9881 30.1725 36.9881 30.8109 37.0732C32.0877 37.2007 33.3219 37.6684 34.3859 38.3487C34.5135 38.4337 34.6838 38.3912 34.7689 38.2636C34.8115 38.2211 34.8115 38.1361 34.8115 38.0511C34.8115 37.966 34.7689 37.9235 34.6838 37.881C33.5347 37.1157 32.2154 36.648 30.8535 36.4779C30.1725 36.3929 29.5341 36.4354 28.9809 36.563C27.8318 36.8181 26.7678 37.4983 26.0869 38.5187C25.9592 38.7313 25.8315 38.9439 25.7038 39.2415C25.5336 39.6242 25.491 39.7943 25.491 39.8793C25.3208 40.5596 25.2782 41.2823 25.3634 41.9201C25.6187 43.3232 26.4699 44.5136 27.4062 45.6616C27.5764 45.8742 27.7892 46.1293 28.002 46.3844C26.6401 45.1939 25.6613 43.7908 25.108 42.3028L25.0654 42.2177L24.6824 42.2602C21.3628 42.1752 15.362 40.7296 12.851 37.881C13.4468 36.8181 14.0001 35.7551 14.4682 34.7347C14.5108 34.6072 14.4682 34.4371 14.3406 34.3521C14.2129 34.3096 14.0427 34.3521 13.9575 34.4796C13.1489 36.2228 12.2126 37.9235 11.1486 39.5392C10.7231 40.1769 10.1698 41.1123 9.74419 41.8776L9.70163 41.9201C9.48884 42.2602 9.3186 42.6004 9.14837 42.898C8.33974 44.2585 7.40344 46.3844 6.33947 49.148C5.27549 49.3606 4.1264 49.4031 3.06242 49.233C3.06242 48.8504 3.23266 48.4252 3.53057 48.0851C3.87105 47.7024 4.29664 47.4473 4.76479 47.4048C4.8499 47.4048 4.89246 47.3623 4.93502 47.3198C4.97758 47.2772 5.02014 47.1922 5.02014 47.1072C5.02014 46.9371 4.89246 46.8521 4.72223 46.8521C4.1264 46.8946 3.53057 47.2347 3.10498 47.7449C2.76451 48.1701 2.55172 48.6803 2.50916 49.1905C2.21124 49.1905 1.87077 49.063 1.78565 48.9779C1.78565 48.9779 1.74309 48.8929 1.87077 48.6803C2.21124 47.9575 2.93475 47.4898 3.65825 47.0221L3.95616 46.8096C4.42431 46.5119 4.8499 45.7892 5.10526 45.4065C5.31805 45.0664 9.10581 36.4779 10.2123 33.2466C10.2549 33.1616 10.2123 33.0766 10.1698 33.034C9.5314 31.9286 9.27604 30.9932 9.36116 30.1429C9.44628 29.25 10.1272 28.2721 11.0635 28.1446C11.1486 28.1446 11.1912 28.1021 11.2338 28.0596C11.2763 28.017 11.3189 27.932 11.2763 27.847C11.2763 27.7619 11.2338 27.7194 11.1912 27.6769C11.2763 27.6344 11.2338 27.6344 11.1486 27.6344C9.87187 27.7619 9.06325 29.0374 8.93557 30.1429C8.85045 31.0783 9.10581 32.0987 9.78675 33.2466C8.5951 36.6905 4.89246 44.9388 4.76479 45.1939C4.42431 45.7892 4.04128 46.2568 3.78593 46.4269C3.70081 46.4694 3.61569 46.5545 3.53057 46.597L3.48801 46.6395C2.72195 47.1497 1.95589 47.6599 1.5303 48.5102C1.48774 48.6378 1.44518 48.7228 1.40262 48.8504C1.10471 48.8504 1.06215 48.7653 1.06215 48.7653C1.06215 48.7653 1.01959 48.7228 1.10471 48.5528C1.40262 47.7449 2.12613 47.1922 2.89219 46.597C3.4029 46.2143 3.9136 45.8317 4.29664 45.364C4.72223 44.8538 5.0627 43.8334 5.31805 42.983C5.40317 42.7279 5.44573 42.5153 5.53085 42.3453C5.95644 41.1973 6.50971 39.8793 7.06297 38.6463V38.6038C7.61624 37.3283 8.21207 36.0102 8.63766 34.8198C8.72277 34.5647 8.80789 34.3521 8.85045 34.0545C8.89301 33.6718 8.76533 33.3317 8.63766 32.949C8.5951 32.864 8.5951 32.7789 8.55254 32.6939C8.16951 31.4609 8.50998 30.1429 8.85045 29.1225C9.27604 27.8895 9.78675 26.6565 10.4677 25.5511C10.5528 25.381 10.6805 25.2109 10.8082 24.9983C11.5317 23.8079 12.2552 22.6174 12.2126 21.2143C12.1701 20.2789 11.6593 19.2585 10.7231 19.131C10.5103 19.0885 10.2975 19.131 10.0847 19.131C9.87187 19.131 9.70163 19.1735 9.5314 19.131C9.44628 19.131 9.23348 19.0459 9.19092 18.4082C9.19092 18.3657 9.3186 18.2806 9.40372 18.2381C9.5314 18.1956 9.70163 18.2381 9.87187 18.2381H9.99955C10.5103 18.2806 11.021 18.1956 11.404 17.898C11.8721 17.6004 12.2552 17.0051 11.9998 16.4524C11.9147 16.1973 11.7445 16.0272 11.4891 15.9422C11.1912 15.8147 10.7656 15.8572 10.34 16.0272C9.70163 16.2823 9.19092 16.6225 8.85045 17.0476C8.68022 17.2602 8.55254 17.3028 8.50998 17.3028C8.46742 17.3028 8.42486 17.2177 8.3823 17.1752C8.04183 16.7925 7.78648 16.4099 7.6588 16.0698C7.70136 16.0272 7.78648 16.0272 7.82904 15.9847C7.87159 15.9847 7.87159 15.9847 7.91415 15.9847C8.12695 15.9847 8.3823 16.0272 8.5951 15.8997C8.93557 15.7296 9.19092 15.3045 9.06325 14.9218C9.02069 14.8368 8.93557 14.7517 8.85045 14.7517C8.5951 14.7092 8.29718 14.7942 8.08439 14.9643C7.91415 15.0919 7.78648 15.2619 7.6588 15.3895L7.61624 15.4745L7.57368 15.517C7.57368 15.347 7.61624 15.1769 7.70136 15.0068C7.91415 14.5391 8.46742 14.284 9.02069 14.0715C9.3186 13.9439 9.61652 13.8164 9.87187 13.6463C9.99955 13.5613 10.1272 13.4762 10.2549 13.3062C10.34 13.1786 10.3826 13.0936 10.4251 12.966C10.4251 12.9235 10.4677 12.881 10.4677 12.8385C10.723 12.2007 11.5742 11.9881 12.0424 11.9031C12.468 11.8181 12.851 11.7755 13.234 11.6905H13.3191C17.7027 10.9252 20.8521 10.415 20.8521 7.39629C20.8521 6.46091 20.1286 5.35547 19.1072 4.71772C18.6816 4.46261 18.0006 4.12248 17.1069 4.12248C17.0218 3.90989 17.0643 3.82486 17.0643 3.78234C17.1069 3.56976 17.0218 3.39969 16.8941 3.1871C18.0006 3.61227 19.2349 4.25003 19.703 4.59017C20.4265 5.10037 20.9372 5.90819 21.0649 6.75853C21.1926 7.56636 20.9798 8.50173 20.3839 9.64969C20.0435 10.3725 19.6179 11.0953 19.0646 11.733C19.0646 11.4779 19.0221 11.2228 18.9369 10.9677C18.8944 10.8827 18.8518 10.8402 18.7667 10.7976C18.6816 10.7551 18.5965 10.7551 18.5539 10.7976C17.9155 11.1378 17.1495 11.3079 16.426 11.3504C16.2983 11.3504 16.1706 11.3504 16.0429 11.3504H16.0004C15.7876 11.3504 15.5748 11.3504 15.362 11.3504C14.8513 11.3929 14.3831 11.5204 13.915 11.733C13.8299 11.7755 13.7873 11.8181 13.7873 11.9031C13.7447 11.9881 13.7447 12.0306 13.7873 12.1157C13.8299 12.2432 14.0001 12.3283 14.1703 12.2432C14.5534 12.0732 14.979 11.9456 15.4045 11.9456C15.6173 11.9456 15.8301 11.9456 16.0429 11.9456C16.1706 11.9456 16.3408 11.9456 16.4685 11.9456C17.1495 11.9031 17.873 11.7755 18.5114 11.4779C18.5539 11.9456 18.4262 12.4558 18.0858 12.881C17.7027 13.3487 17.1069 13.6038 16.426 13.6463C16.2132 13.6463 15.9578 13.6463 15.7025 13.6463L14.6385 13.6038C14.5534 13.6038 14.5108 13.6038 14.4257 13.6888C14.3831 13.7313 14.3406 13.8164 14.3406 13.9014C14.3406 14.0715 14.4682 14.199 14.5959 14.199L15.6599 14.2415C15.9153 14.2415 16.1706 14.284 16.426 14.2415C17.1495 14.199 17.8304 13.9014 18.2986 13.4337V13.4762L18.3411 13.7738C18.3411 13.8589 18.3837 13.9864 18.3837 14.0715C18.3837 14.1565 18.4262 14.199 18.4262 14.284L18.4688 14.3691C18.4688 14.4541 18.5114 14.4966 18.5114 14.5817C18.5539 14.7517 18.639 14.9218 18.6816 15.0919C18.8518 15.4745 19.0221 15.8572 19.1923 16.1548C19.2774 16.3249 19.3625 16.4524 19.4477 16.6225C19.5328 16.75 19.6179 16.9201 19.703 17.0902C19.7881 17.2177 19.8732 17.3878 19.9158 17.5153L20.0435 17.4728H20.0009C20.1712 17.813 20.2988 18.0681 20.3839 18.3232C20.3839 18.3657 20.3839 18.4082 20.4265 18.4507C20.4265 18.4932 20.4691 18.5783 20.4691 18.6208C20.4265 18.9184 20.3839 19.216 20.3839 19.4711C20.2988 20.2364 20.2137 21.0017 19.8732 21.6395C19.2349 22.8725 17.7878 23.5102 16.5111 24.063C16.3408 24.148 16.0429 24.2755 15.9153 24.4881C15.7876 24.6582 15.745 24.8283 15.745 24.9558C15.6173 25.7636 15.6173 26.5715 15.6173 27.3793C15.6173 27.5919 15.6173 27.847 15.6599 28.0596C15.6599 28.2296 15.6173 28.4422 15.6173 28.6548C15.5748 28.9949 15.5322 29.3776 15.5748 29.6752C15.5748 29.8453 15.6173 30.0153 15.7025 30.1854C15.5322 30.8657 15.4045 31.716 15.4045 32.3113C15.4045 32.6089 15.4471 32.9065 15.5748 33.2041C15.7025 33.4592 16.0004 33.7143 16.3834 33.7143C16.426 33.7143 16.426 33.7143 16.4685 33.7143C16.7239 33.6718 16.9792 33.4592 17.2346 33.0766C17.3623 33.2466 17.4899 33.3742 17.6176 33.4592C17.7878 33.6293 18.0432 33.8419 18.3411 33.8844C18.5539 33.9269 18.7667 33.7568 18.8944 33.6293C18.9369 33.5868 18.9795 33.5443 19.0221 33.5017C19.1072 33.6293 19.2349 33.7568 19.3625 33.8419C19.5328 34.0119 19.7881 34.182 20.0435 34.182H20.086C20.5116 34.1395 20.8095 33.8844 20.9798 33.3742C21.1926 33.5443 21.4054 33.6293 21.6607 33.6293C21.9586 33.6293 22.3417 33.4592 22.5545 33.0766C22.597 33.1191 22.6396 33.1616 22.6821 33.1616C23.1077 33.4167 23.5759 33.5017 24.0015 33.3317C24.3419 33.2041 24.5547 32.949 24.6399 32.6514C24.7675 32.6514 24.8526 32.6514 24.9378 32.6514C25.2357 32.6089 25.5336 32.3963 25.7464 32.0562C25.8741 31.8436 25.9166 31.631 25.9166 31.4184C26.0017 31.4184 26.0443 31.4184 26.1294 31.4184C26.4699 31.3759 26.8104 31.2058 27.0657 30.9507C27.1083 30.9507 27.1083 30.9932 27.1508 30.9932C27.5339 31.2908 28.2999 31.8436 28.3425 31.8436C28.385 31.8861 32.5133 34.9898 33.407 35.6701C33.79 35.9677 34.2156 36.2653 34.6412 36.563C35.2796 37.0306 35.9606 37.4983 36.5138 38.0511C37.2373 38.7738 37.748 39.7517 38.1736 40.5596C39.1525 42.4728 40.0462 44.5136 40.0462 46.7245C40.0462 47.2772 39.9611 47.7449 39.7909 48.0851C39.5781 48.5102 39.2802 48.8079 38.8971 48.9354C38.6843 48.9779 38.4715 48.9779 38.2587 49.0204L34.8115 49.063C34.8115 48.7653 34.7689 48.3827 34.6838 48.1276ZM19.8732 48.5102C19.8732 48.5528 19.8307 48.6378 19.8307 48.6803C19.7456 48.6378 19.703 48.5528 19.6604 48.4677C19.6604 48.4252 19.703 48.0851 19.9158 47.7449C20.086 47.4898 20.4265 47.0221 20.9372 46.9371L21.2777 46.8946C21.2777 46.8946 21.2777 46.8946 21.3202 46.8946C20.5967 47.1497 20.0435 47.7874 19.8732 48.5102ZM30.9811 4.54765C31.4919 3.31465 32.0026 2.20921 32.5558 1.27384C32.6835 1.06125 32.8537 0.806151 33.024 0.763634C33.2793 0.6786 33.5347 0.933702 33.6198 1.1888C33.7475 1.52894 33.6624 1.91159 33.5772 2.25173C32.6835 5.78064 30.4704 8.75683 28.5127 11.3504C28.4702 11.3079 28.385 11.3079 28.3425 11.3079C28.4702 11.0102 28.5978 10.7126 28.5553 10.3725C28.5127 9.94731 28.2574 9.47962 27.7467 9.43711L30.0448 6.16329C30.3853 5.65309 30.7684 5.10037 30.9811 4.54765ZM22.2565 32.0136C21.831 31.4184 21.533 30.8232 21.4054 30.2704C21.5756 30.2704 21.7458 30.2279 21.9161 30.1429C22.1714 30.0153 22.3842 29.7602 22.4268 29.4626C22.4693 29.9728 22.597 30.4405 22.7247 30.8232C22.8098 31.1633 22.9375 31.5459 23.1928 31.8436C23.3205 31.9711 23.4482 32.0987 23.5333 32.1837C23.7036 32.3113 23.8738 32.4388 24.0015 32.5238C23.9589 32.6939 23.8738 32.7789 23.7036 32.864C23.4908 32.949 23.1503 32.9065 22.8949 32.7364C22.6821 32.5238 22.4693 32.2687 22.2565 32.0136ZM17.5751 30.8657C17.6176 30.8232 17.6602 30.7806 17.7027 30.6956C17.873 30.8232 18.0858 30.8657 18.2986 30.9082C18.3411 31.631 18.4262 32.3538 18.6816 32.949C18.6816 32.9915 18.639 33.1191 18.5114 33.2041C18.4262 33.2891 18.3837 33.2891 18.3837 33.3317C18.256 33.2891 18.1283 33.2041 18.0006 33.034C17.8304 32.864 17.6602 32.7364 17.5751 32.5238C17.3623 32.1837 17.2771 31.716 17.2771 31.0357C17.3623 31.0357 17.4474 30.9507 17.5751 30.8657ZM19.5328 30.483C19.5753 30.483 19.5753 30.5255 19.6179 30.5255C19.6179 31.2483 20.0009 31.9286 20.2563 32.4388C20.3414 32.6089 20.4265 32.7364 20.5116 32.864C20.3839 33.3742 20.2563 33.5868 20.0009 33.5868C19.9158 33.5868 19.7881 33.5017 19.6604 33.3742C18.9795 32.7789 18.8518 31.7585 18.8093 30.8232C19.1072 30.8232 19.3625 30.6531 19.5328 30.483ZM20.3414 30.6956C20.5542 30.6956 20.7244 30.5681 20.8947 30.4405C21.0649 31.0357 21.3628 31.6735 21.831 32.3113C21.9161 32.4388 22.0012 32.5238 22.0863 32.6514C22.0438 32.9915 21.7458 33.0766 21.6607 33.0766C21.2777 33.0766 20.9798 32.6089 20.767 32.2262C20.5542 31.8011 20.2563 31.2483 20.2137 30.7381C20.2563 30.6956 20.2988 30.6956 20.3414 30.6956ZM23.278 30.6531C23.1503 30.2279 23.0226 29.8028 23.0226 29.3351C23.1503 29.2925 23.2354 29.25 23.3631 29.165C23.4908 29.08 23.6184 28.9524 23.7036 28.8674C23.7887 29.1225 23.9163 29.3776 24.0015 29.5477C24.2143 29.9728 24.3845 30.398 24.725 30.7806C24.8952 30.9932 25.1506 31.1633 25.3634 31.2483C25.4059 31.4184 25.3634 31.631 25.2782 31.8011C25.1931 31.9711 25.0229 32.0987 24.8952 32.1412C24.6399 32.1837 24.3419 32.0562 24.0015 31.7585C23.9163 31.6735 23.7887 31.5885 23.7036 31.5034C23.4482 31.2483 23.3631 30.9507 23.278 30.6531ZM16.5111 31.1208C16.5536 31.1208 16.6388 31.1633 16.6813 31.1633C16.6813 31.6735 16.7664 32.1412 16.8941 32.4813C16.6813 32.949 16.4685 33.1616 16.3834 33.1616C16.2557 33.1616 16.128 33.0766 16.0429 32.949C15.9578 32.7789 15.9153 32.5664 15.9153 32.3113C15.9153 31.9286 15.9578 31.3759 16.0855 30.8657C16.2132 30.9932 16.3408 31.0783 16.5111 31.1208ZM29.7895 16.8351C29.7895 17.1327 29.7895 17.4303 29.7044 17.7279C29.6193 17.983 29.4916 18.2806 29.3639 18.5357C29.1937 18.8334 29.0234 19.1735 28.8958 19.5136L28.8532 19.5562C28.683 19.8538 28.5553 20.1514 28.385 20.449C28.2999 20.449 28.1723 20.4065 28.0871 20.4065C28.0446 20.4065 28.002 20.4065 27.9595 20.4065C27.8318 20.1514 27.7041 19.8963 27.4913 19.7262C28.1297 18.8334 28.7255 17.9405 29.2788 17.0476C29.4065 16.8351 29.5341 16.6225 29.6193 16.3674C29.6193 16.3249 29.6618 16.2823 29.6618 16.2398C29.6618 16.2823 29.7044 16.2823 29.7044 16.3249C29.7895 16.4949 29.7895 16.665 29.7895 16.8351ZM29.5341 20.8317C29.3213 20.7466 29.1511 20.6616 28.9383 20.5766C29.066 20.3215 29.1937 20.0664 29.3213 19.8113C29.4916 19.4711 29.7044 19.0885 29.8746 18.7483C29.9597 18.6208 30.0023 18.4507 30.0874 18.3232C30.2151 18.2806 30.3428 18.3232 30.4279 18.3657C30.5556 18.4507 30.6407 18.6208 30.6832 18.7908C30.7684 19.2585 30.5556 19.7262 30.3002 20.2364L29.9172 21.0017C29.7895 20.9592 29.6618 20.9167 29.5341 20.8317ZM25.5762 25.7636C25.5336 25.8487 25.5336 25.9762 25.5762 26.0613C25.6613 26.2313 25.6187 26.4439 25.491 26.5715C25.3634 26.699 25.108 26.6565 24.9803 26.5289H24.9378C24.8952 26.4864 24.8526 26.4864 24.8526 26.4864H24.8101C24.7675 26.4864 24.6824 26.4864 24.6399 26.4864C24.5973 26.4864 24.5547 26.5289 24.5122 26.5715V26.614C24.4696 26.6565 24.4696 26.699 24.4696 26.7415V26.784C24.5122 27.1667 24.5122 27.5068 24.3419 27.7619C24.2568 27.8895 24.1291 27.9745 23.9589 28.017C23.9163 28.017 23.8312 28.017 23.7461 27.9745C23.7036 27.932 23.661 27.932 23.6184 27.8895H23.5759C23.5333 27.8895 23.4908 27.8895 23.4482 27.8895L23.4056 27.932C23.3631 27.9745 23.3631 27.9745 23.3205 28.017V28.0596C23.3205 28.1021 23.278 28.1446 23.278 28.1871V28.2296C23.3205 28.4847 23.1503 28.6973 22.9375 28.8249C22.7673 28.9524 22.4693 29.0374 22.2565 28.9099C22.1714 28.8674 22.0438 28.8674 21.9586 28.9099C21.8735 28.9524 21.831 29.08 21.831 29.2075C21.8735 29.4201 21.7458 29.6752 21.5756 29.7602C21.4479 29.8453 21.3202 29.8453 21.1926 29.8028C21.15 29.7602 21.0649 29.7177 21.0223 29.7177C21.0223 29.7177 21.0223 29.7177 20.9798 29.6752C20.8947 29.5902 20.767 29.5902 20.6819 29.6327C20.5967 29.6752 20.5116 29.8028 20.5116 29.8878C20.5116 30.0579 20.3839 30.2279 20.2137 30.2279C20.1286 30.2279 20.086 30.2279 19.9584 30.1854C19.9158 30.1854 19.8307 30.1429 19.8307 30.1429C19.7456 30.1004 19.6604 30.0153 19.5328 29.9728C19.4477 29.9303 19.3625 29.8878 19.32 29.9303C19.2349 29.9303 19.1923 30.0153 19.1497 30.1004C19.0221 30.398 18.6816 30.483 18.4262 30.483C18.1709 30.483 17.8304 30.398 17.7027 30.1004C17.6176 29.9728 17.4899 29.9303 17.3623 29.9728C17.2346 30.0153 17.1495 30.1854 17.2346 30.313C17.2771 30.398 17.2346 30.5255 17.1495 30.5681C17.0218 30.6956 16.8516 30.7806 16.6813 30.6956C16.2983 30.5681 16.128 30.1004 16.128 29.7177C16.0855 29.4626 16.128 29.165 16.1706 28.8249C16.2983 28.9099 16.4685 28.9524 16.5962 28.9099C16.6813 28.9099 16.809 28.8674 16.8941 28.8249C17.0643 29.0374 17.3197 29.165 17.5751 29.2075C17.7878 29.25 18.0006 29.2075 18.1709 29.1225C18.4688 29.25 18.8093 29.25 19.1497 29.1225C19.4477 28.9949 19.703 28.7823 19.8307 28.4847C20.1712 28.5272 20.5116 28.3997 20.767 28.1446C21.0223 27.932 21.15 27.6769 21.2351 27.4218C21.4479 27.4218 21.6607 27.3793 21.831 27.2517C22.0438 27.1242 22.1714 26.9541 22.214 26.7415C22.5119 26.784 22.8524 26.699 23.1503 26.4864C23.4056 26.3164 23.6184 26.0613 23.661 25.7636C23.7461 25.7636 23.8312 25.7636 23.9163 25.7636C24.2568 25.7211 24.5973 25.466 24.7675 25.1684C24.9378 24.7857 24.9378 24.4031 24.8526 24.063C24.8952 24.063 24.9378 24.0204 24.9803 24.0204C25.2782 23.8929 25.5336 23.5528 25.5762 23.2126C25.6187 23 25.5762 22.7874 25.5762 22.6174C25.5762 22.4048 25.5336 22.2347 25.5762 22.0647C25.6187 21.9371 25.7038 21.767 25.7889 21.6395C25.8741 21.5119 25.9166 21.3844 26.0017 21.2568C26.1294 20.9592 26.1294 20.6191 26.0017 20.4065C26.172 20.2789 26.2997 20.1514 26.3422 19.8963C26.3422 19.8963 26.3422 19.8963 26.3422 19.8538C26.555 19.8538 26.7252 19.8963 26.8955 20.0238C26.938 20.0664 26.9806 20.0664 27.0232 20.1089L27.0657 20.1514C27.2785 20.3215 27.4487 20.5766 27.5339 20.8742V20.9167C27.5339 21.0017 27.5764 21.0442 27.5764 21.1293C27.619 21.3419 27.5764 21.597 27.5339 21.8096L27.4062 22.8725C27.3636 23.0851 27.3636 23.3402 27.236 23.5102C27.1508 23.6378 27.0232 23.7228 26.8955 23.6803C26.7678 23.6378 26.6401 23.6803 26.5976 23.7653C26.5124 23.8504 26.5125 23.9779 26.555 24.1055C26.6401 24.233 26.938 24.7857 26.7252 25.1684C26.555 25.5085 26.172 25.7211 25.8315 25.6786C25.7464 25.6361 25.6187 25.6786 25.5762 25.7636ZM29.1511 16.1973C29.066 16.4099 28.9383 16.58 28.8106 16.7925C28.2574 17.6854 27.7041 18.5783 27.0657 19.4286C26.8529 19.3436 26.6401 19.2585 26.4273 19.2585C26.4273 19.216 26.4699 19.1735 26.4699 19.131C26.5124 19.0885 26.5125 19.0034 26.555 18.9609C26.5976 18.8759 26.6827 18.7483 26.7252 18.6208C26.8104 18.2806 26.6827 17.9405 26.555 17.6854C27.619 16.7925 28.1723 15.6021 28.683 14.4541L28.8532 14.0715C29.1086 14.2415 29.2362 14.5817 29.2788 14.8793C29.3639 15.347 29.3213 15.7721 29.1511 16.1973ZM28.5127 13.5187C28.4702 13.5613 28.4276 13.6038 28.4276 13.6888V13.7313C28.385 13.7738 28.385 13.8589 28.3425 13.9014L28.1722 14.2415C27.6615 15.3045 27.1934 16.4099 26.2571 17.1752C26.1294 16.9201 26.0017 16.665 25.8741 16.4524C26.0869 16.1123 26.172 15.6871 26.0869 15.2619C26.0443 15.0919 26.0017 14.9643 25.9166 14.7942C26.7678 13.9439 27.4913 12.9235 28.0871 11.8181C28.1723 11.8181 28.2574 11.8181 28.385 11.9031C28.5978 12.0732 28.7681 12.4133 28.7255 12.7534C28.683 13.0511 28.5978 13.3062 28.5127 13.5187ZM28.002 10.415C28.002 10.6701 27.9169 10.9677 27.7892 11.2228C27.236 12.4133 26.4699 13.4762 25.5762 14.3691C25.5336 14.3266 25.491 14.3266 25.491 14.284C25.5762 13.9864 25.491 13.6038 25.2357 13.3912C25.0654 13.2211 24.8101 13.1361 24.5547 13.1361L27.0657 10.3725C27.1083 10.3725 27.1508 10.33 27.1508 10.2874L27.1934 10.2449C27.4062 10.0323 27.5764 9.94731 27.7041 9.98983C27.8743 9.98983 28.002 10.2024 28.002 10.415ZM24.8526 13.7738C24.9803 13.9014 24.9803 14.114 24.8952 14.2415C24.8526 14.3266 24.8526 14.4116 24.8526 14.4966C24.8952 14.5817 24.9378 14.6242 25.0229 14.6667C25.2782 14.7517 25.491 15.0493 25.5762 15.347C25.6613 15.6871 25.5762 15.9847 25.3634 16.1973C25.2782 16.2823 25.2782 16.4099 25.3208 16.5374C25.5762 16.9626 25.8315 17.4303 26.0443 17.898C26.1294 18.1106 26.2145 18.3232 26.172 18.4507C26.172 18.4932 26.1294 18.5783 26.0869 18.6633C26.0443 18.7483 26.0017 18.8334 25.9592 18.8759C25.8741 19.0459 25.8741 19.2585 25.8315 19.4286C25.8315 19.5136 25.8315 19.5987 25.7889 19.6837C25.7464 19.7687 25.7464 19.8538 25.4485 19.9388C25.3634 19.9813 25.2782 20.0664 25.2782 20.1939C25.2782 20.3215 25.3208 20.4065 25.4485 20.449C25.5762 20.4915 25.5762 20.7466 25.491 20.9592C25.4485 21.0442 25.4059 21.1718 25.3208 21.2568C25.2357 21.4269 25.108 21.597 25.0654 21.8521C24.9803 22.1072 25.0229 22.3623 25.0229 22.6174C25.0229 22.7874 25.0654 22.9575 25.0229 23.0851C25.0229 23.2126 24.8952 23.3827 24.7675 23.4252L24.4696 23.3827H24.4271C24.3845 23.3827 24.3845 23.3827 24.3419 23.4252C24.2568 23.4677 24.2143 23.5953 24.2143 23.7228C24.2994 24.148 24.3845 24.5306 24.2143 24.8708C24.1291 24.9983 23.9589 25.1259 23.7887 25.1684C23.7036 25.1684 23.6184 25.1684 23.5759 25.0834C23.4908 24.9983 23.3631 24.9558 23.2354 24.9983C23.1077 25.0408 23.0652 25.1684 23.0652 25.2959C23.1077 25.5936 22.9375 25.8062 22.7247 25.9337C22.5545 26.0613 22.2565 26.1463 22.0012 26.0187C21.9161 25.9762 21.7884 25.9762 21.7033 26.0187C21.6182 26.1038 21.5756 26.1888 21.6182 26.3164C21.6607 26.4439 21.533 26.5715 21.4479 26.6565C21.3202 26.7415 21.1926 26.784 21.0649 26.699C20.9798 26.614 20.8521 26.614 20.767 26.699C20.6819 26.7415 20.6393 26.8691 20.6393 26.9966C20.6819 27.2092 20.5967 27.4643 20.3839 27.6344C20.1712 27.8045 19.9158 27.8895 19.703 27.8045C19.6179 27.7619 19.5328 27.7619 19.4477 27.847C19.3625 27.8895 19.32 27.9745 19.32 28.0596C19.32 28.2721 19.1497 28.4422 18.8944 28.5272C18.6816 28.6123 18.4262 28.6123 18.256 28.4847C18.2134 28.4422 18.1283 28.3997 18.0858 28.3997H18.0432C17.9581 28.3997 17.873 28.4422 17.8304 28.5272C17.7878 28.6123 17.6602 28.5698 17.6176 28.5698C17.4474 28.5272 17.2346 28.3997 17.192 28.2721C17.1495 28.1446 17.0643 28.0596 16.9792 28.0596H16.9367C16.8515 28.0596 16.7664 28.1021 16.7239 28.1871C16.6813 28.2296 16.6388 28.2721 16.5536 28.2721C16.4685 28.2721 16.3834 28.2296 16.2983 28.1446C16.1706 28.017 16.1706 27.7194 16.1706 27.3793C16.1706 26.614 16.1706 25.8062 16.2983 25.0408C16.2983 24.9558 16.3408 24.8708 16.3834 24.7857C16.426 24.7007 16.5536 24.6157 16.7239 24.5732C18.0006 24.0204 19.6179 23.3402 20.3839 21.8946C20.767 21.1293 20.8521 20.3215 20.9372 19.5136C20.9798 19.2585 20.9798 19.0034 21.0223 18.7483L21.0649 18.4082C21.0649 18.3232 21.1075 18.1956 21.1075 18.1106C21.4905 16.5374 22.6396 15.2619 23.7036 14.114L24.044 13.7313C24.1291 13.8164 24.2994 13.8164 24.3845 13.7313C24.5122 13.6463 24.725 13.6888 24.8526 13.7738ZM24.2143 10.8827C24.2568 10.9252 24.2994 10.9252 24.3419 10.9677L24.3845 11.0102C24.4696 11.0528 24.5122 11.1378 24.5547 11.2228C24.725 11.5204 24.7675 11.9031 24.725 12.2007L23.3205 13.7738C22.3417 14.8793 21.1926 16.1123 20.7244 17.6429L20.6819 17.5579C20.6393 17.4728 20.5967 17.3878 20.5542 17.3028L20.5116 17.2177C20.4691 17.1327 20.4265 17.0476 20.3414 16.9201L20.1712 16.58C20.7244 15.6021 23.1503 12.5408 23.1928 12.5408C23.5759 12.0306 23.9163 11.4779 24.2143 10.8827ZM26.0443 30.8657C25.7038 30.9082 25.3634 30.7381 25.0654 30.398C24.8101 30.1004 24.5973 29.6752 24.4271 29.2925C24.3419 29.1225 24.2568 28.9524 24.1717 28.7398L24.0866 28.4847C24.3845 28.4422 24.6824 28.2296 24.8526 27.9745C24.8952 27.8895 24.9378 27.8045 24.9803 27.6769C25.1931 28.017 25.4059 28.3572 25.6187 28.6123C26.0017 29.08 26.3848 29.4201 26.7678 29.5902C26.8529 29.8878 26.8529 30.1854 26.6827 30.4405C26.555 30.6956 26.2997 30.8232 26.0443 30.8657ZM34.3433 9.77724C34.3433 9.81976 34.3008 9.81976 34.3008 9.81976C34.2156 9.98983 34.088 10.1599 34.0028 10.33C33.9177 10.4575 33.8326 10.5851 33.7475 10.7126C33.407 11.2228 33.1091 11.7755 32.8537 12.3283C32.3005 13.3062 31.7472 14.3266 31.0237 15.1769C30.9386 15.2619 30.8535 15.347 30.7684 15.432C30.5981 15.6446 30.3853 15.8572 30.2151 16.0698C30.13 15.8997 30.0023 15.7721 29.8321 15.6871C29.8746 15.3895 29.8746 15.0919 29.8321 14.8368C29.7895 14.6667 29.7469 14.5391 29.7044 14.3691C31.7047 12.1582 33.3219 9.69221 34.5135 6.9286C34.8115 7.4388 34.9817 8.24663 34.8115 8.75683C34.7263 9.13949 34.5135 9.52214 34.3433 9.77724ZM25.3208 27.1667C25.491 27.1667 25.6613 27.0817 25.8315 26.9966C25.9592 26.9116 26.0869 26.7415 26.1294 26.5715C26.7678 27.1667 27.4062 27.7619 28.0446 28.3147C28.1723 28.5272 28.0871 28.9949 27.9595 29.08C27.7892 29.2075 27.4913 29.25 27.1934 29.165C26.8104 29.0374 26.4273 28.7398 26.0443 28.2721C25.8315 27.9745 25.5336 27.5494 25.3208 27.1667ZM27.236 25.381C27.3636 25.1684 27.3636 24.9133 27.3636 24.6157C27.4487 24.6582 27.5339 24.7432 27.619 24.8283L28.4702 25.5936C28.683 25.8062 28.8958 26.0187 29.1085 26.2313C29.1511 26.2738 29.1937 26.3164 29.1937 26.3589L29.2362 26.4014C29.4065 26.614 29.4916 26.8266 29.4916 27.0391C29.5341 27.3368 29.449 27.6344 29.2362 27.8045C29.066 27.9745 28.683 28.017 28.4702 27.8895C27.7892 27.3368 27.1083 26.699 26.4699 26.0613C26.8104 25.9762 27.1083 25.6786 27.236 25.381ZM29.9172 25.6361C29.8321 25.7636 29.7044 25.8912 29.5341 25.8912C29.3213 25.6361 29.066 25.381 28.8532 25.1684L28.002 24.4031C27.8318 24.233 27.6615 24.148 27.4913 24.0204C27.5764 23.9354 27.6615 23.8504 27.7041 23.7653C27.8743 23.4677 27.9169 23.1701 27.9595 22.915V22.7874C28.3425 22.9575 29.0234 23.2551 29.2362 23.4677C29.4916 23.7228 29.7044 24.0204 29.8321 24.3606C29.8321 24.3606 29.8321 24.4031 29.8746 24.4456V24.4881C29.9172 24.6157 29.9597 24.7857 30.0023 24.9133C30.0448 25.2109 30.0023 25.466 29.9172 25.6361ZM30.3002 23.9354C30.13 23.5953 29.9172 23.2976 29.6618 23.0425C29.3639 22.7874 28.683 22.4898 28.2148 22.2772L28.0871 22.2347L28.1297 21.8946C28.1722 21.6395 28.2148 21.3419 28.1722 21.0868C28.1722 21.0868 28.1722 21.0868 28.1722 21.0442C28.4702 21.0442 28.8958 21.1718 29.3213 21.3844C29.4916 21.4694 29.6618 21.5545 29.8321 21.682C29.8321 21.682 29.8746 21.682 29.8746 21.7245L29.9172 21.767L29.9597 21.8096C30.13 21.9371 30.3002 22.0221 30.4279 22.1497C30.7684 22.4473 30.9386 22.8725 30.9386 23.2126C30.9386 23.3827 30.5981 23.7653 30.3002 23.9354ZM31.0663 21.9371C30.9811 21.8521 30.896 21.767 30.8109 21.682C30.6832 21.5545 30.5556 21.4269 30.3428 21.3419L30.7684 20.534C30.9386 20.1939 31.1514 19.7262 31.2365 19.2585C32.3005 18.0255 33.1942 16.75 34.0028 15.3895C34.1305 16.4099 34.088 17.7279 33.79 18.4932C33.1942 19.8963 32.0451 21.0017 31.0663 21.9371ZM31.1514 18.4507C31.0663 18.2381 30.9386 18.0681 30.7684 17.9405C30.6407 17.8555 30.4704 17.7704 30.2576 17.7704C30.3002 17.5153 30.3428 17.2602 30.3428 17.0476C30.4279 16.5374 30.8109 16.1548 31.1939 15.7721C31.2791 15.6871 31.3642 15.6021 31.4493 15.4745C32.2579 14.5817 32.8112 13.5187 33.3645 12.4983C33.6624 11.9881 33.9177 11.4354 34.2582 10.9252C34.3433 10.7976 34.4284 10.6701 34.471 10.5425C34.5561 10.415 34.6412 10.2874 34.6838 10.1599C34.7263 10.2024 34.7689 10.2449 34.8115 10.2874C35.3222 11.1378 34.854 12.3283 34.471 13.1361C33.5772 15.0919 32.4707 16.7925 31.1514 18.4507ZM29.449 13.8589C29.3639 13.7313 29.2362 13.6463 29.1085 13.5613C29.1937 13.3062 29.2788 13.0511 29.2788 12.8385C29.3213 12.4133 29.1937 11.9881 28.9809 11.733C30.9386 9.13949 33.1517 6.20581 34.088 2.63438C34.471 2.6769 34.7689 2.932 34.8966 3.39969C35.0243 3.95241 34.854 4.54765 34.6412 5.10037C33.4921 8.33166 31.7472 11.3079 29.449 13.8589ZM29.5767 5.86568L26.7678 9.90479C26.7252 9.94731 26.6827 9.98983 26.6401 10.0323L25.2357 11.563C25.1931 11.3079 25.108 11.0953 24.9803 10.8827C24.9378 10.8402 24.9378 10.7976 24.8952 10.7551C26.7678 8.50173 28.4702 6.03574 29.8746 3.44221C30.0874 3.10207 30.2151 2.80445 30.3428 2.50683C30.4279 2.54935 30.5556 2.71942 30.5981 2.88948C30.896 3.86738 30.2151 4.9303 29.5767 5.86568ZM29.4065 3.1871C28.002 5.73812 26.3422 8.16159 24.4696 10.3725C24.4696 10.3725 24.4271 10.3725 24.4271 10.33C24.8101 9.30955 24.5547 8.79935 24.2143 8.58676C24.1291 8.50173 24.0015 8.45921 23.9163 8.45921C25.4485 6.50343 26.7678 4.4201 27.7892 2.1667L27.8318 2.12418C28.002 1.78404 28.1723 1.40139 28.4276 1.10377C28.683 0.806151 29.066 0.6786 29.3639 0.763634C29.7895 0.891185 29.9597 1.35887 29.9597 1.78404C29.9172 2.25173 29.7044 2.71942 29.4065 3.1871ZM23.7461 10.5425C23.4482 11.1803 23.1077 11.6905 22.7247 12.1582C22.6396 12.2857 20.5967 14.7942 19.8307 15.9847L19.5753 15.517C19.5328 15.432 19.4902 15.347 19.4477 15.2619L19.4051 15.1769C19.3625 15.0493 19.32 14.9643 19.2349 14.8368C19.2349 14.7942 19.1923 14.7517 19.1923 14.7092V14.6667C19.5753 14.1565 20.1712 13.2636 20.6819 12.4558C21.2777 11.563 21.9161 10.5851 22.2565 10.1174C22.4693 9.81976 22.7247 9.47962 23.0226 9.26704C23.1077 9.22452 23.1928 9.182 23.278 9.13949C23.3205 9.13949 23.3631 9.13949 23.4056 9.09697C23.5333 9.05445 23.7461 9.01193 23.8738 9.13949C24.2568 9.30955 24.0015 9.98983 23.7461 10.5425ZM16.5111 3.69731C16.5111 3.82486 16.3408 3.95241 16.128 4.07996C15.9153 4.12248 15.6599 4.20751 15.4471 4.29255C15.4897 4.165 15.4897 4.03744 15.4897 3.90989C15.5322 3.65479 15.5748 3.27214 15.5748 2.932C16.5111 3.35717 16.5111 3.65479 16.5111 3.69731ZM8.68022 2.46431C10.723 2.37928 12.9361 2.37928 14.979 2.46431C15.0215 2.932 14.979 3.39969 14.9364 3.82486C14.8513 4.29255 14.7662 4.76023 14.5959 5.1854C14.0001 6.37588 12.3829 6.97112 11.0635 6.50343C9.78675 6.03574 8.85045 4.76023 8.68022 3.27214C8.5951 2.97452 8.63766 2.71942 8.68022 2.46431ZM11.8721 0.551049H11.9573C12.851 0.551049 14.3831 0.763634 14.8513 1.86908C13.7873 1.82656 12.7233 1.78404 11.6593 1.78404C10.723 1.78404 9.78675 1.78404 8.89301 1.82656C8.97813 1.65649 9.06325 1.52894 9.19092 1.40139C9.70163 0.848668 10.6379 0.551049 11.8721 0.551049Z" fill="#489FDF"/>
<path d="M11.6612 14.4134C11.9166 14.2858 12.0868 14.0733 12.1719 13.7756C12.5124 13.7756 12.8103 13.7331 13.1508 13.6481C13.2784 13.6056 13.4061 13.478 13.3636 13.3079C13.321 13.1804 13.1933 13.0528 13.0231 13.0954C12.2996 13.2654 11.5335 13.2229 10.8526 13.0103C10.7249 12.9678 10.5972 13.0103 10.5121 13.1379C10.3419 13.478 10.3844 13.9032 10.6398 14.2008C10.81 14.3709 11.0654 14.4984 11.3207 14.4984C11.4059 14.4984 11.5335 14.4984 11.6612 14.4134ZM11.5761 13.7756C11.5335 13.8607 11.491 13.9032 11.4059 13.9457C11.2782 13.9882 11.1079 13.9882 10.9803 13.8607C10.9377 13.8182 10.8951 13.7331 10.8951 13.6481C11.1505 13.6906 11.3633 13.7331 11.5761 13.7756Z" fill="#489FDF"/>
<path d="M22.8543 16.6241C22.7692 16.6666 22.7266 16.7091 22.684 16.7516C22.6415 16.8367 22.6415 16.8792 22.684 16.9642C23.0245 18.0697 23.1096 19.2602 22.8543 20.4506L22.7692 20.8333C22.4287 22.2789 21.6626 23.5969 20.6412 24.5323C19.7049 25.3826 18.1728 26.1479 16.896 25.5102C16.8109 25.4676 16.7683 25.4676 16.6832 25.5102C16.5981 25.5527 16.5556 25.5952 16.513 25.6377C16.4279 25.7653 16.513 25.9353 16.6407 26.0204C17.0237 26.1904 17.4493 26.318 17.9174 26.318C18.9389 26.318 20.0879 25.8078 21.0242 24.9574C22.0882 23.9795 22.8968 22.704 23.2799 21.2159L23.365 20.8333C23.6629 19.4727 23.6203 18.0697 23.1948 16.7942C23.1522 16.6666 22.982 16.5816 22.8543 16.6241Z" fill="#489FDF"/>
<path d="M13.3211 16.8368C13.3636 16.3691 13.1508 15.7314 11.789 15.3487C11.6613 15.3062 11.491 15.3912 11.4485 15.5188C11.4059 15.6463 11.491 15.8164 11.6187 15.8589C12.0443 15.9865 12.7678 16.2416 12.7253 16.7092C12.6827 17.1769 12.0017 17.6871 11.8741 17.7297C11.789 17.7297 11.7464 17.7722 11.6613 17.8147C11.6187 17.8572 11.5762 17.9422 11.5762 18.0273C11.5762 18.1973 11.7038 18.2824 11.8741 18.2824C12.2997 18.2824 13.236 17.6021 13.3211 16.8368Z" fill="#489FDF"/>
<path d="M16.4705 18.8776C16.8109 18.7926 17.3216 18.4099 17.577 17.9422C17.7472 17.6021 17.8749 17.0494 17.4919 16.3691C17.2791 16.029 16.8535 15.8589 16.513 15.9864C16.4279 15.9864 16.3853 16.0715 16.3428 16.114C16.3002 16.199 16.3002 16.2415 16.3002 16.3266C16.3428 16.4116 16.3853 16.4541 16.4279 16.4966C16.513 16.5392 16.5556 16.5392 16.6407 16.4966C16.7684 16.4541 16.9386 16.5392 16.9812 16.6667C17.194 17.0068 17.2365 17.347 17.0663 17.6871C16.9812 17.8997 16.8109 18.0273 16.6832 18.1548C16.6832 17.6871 16.4279 17.1344 15.9597 16.6242C15.9172 16.5817 15.8321 16.5392 15.7895 16.5392C15.7044 16.5392 15.6618 16.5392 15.5767 16.6242C15.5342 16.6667 15.4916 16.7517 15.4916 16.7943C15.4916 16.8793 15.4916 16.9218 15.5767 17.0068C16.0874 17.5596 16.2577 18.0698 16.13 18.4524C16.0449 18.7075 15.8321 18.8776 15.6618 19.0051C15.6618 18.7075 15.6193 18.4099 15.4916 18.1123C15.4916 18.1123 15.1511 17.3895 14.8106 17.2194C14.7255 17.1769 14.683 17.1769 14.5979 17.2194C14.5127 17.262 14.4702 17.3045 14.4702 17.3895C14.4276 17.4745 14.4276 17.5171 14.4702 17.6021C14.5127 17.6871 14.5553 17.7296 14.6404 17.7296C14.7255 17.7722 14.9809 18.1548 15.0234 18.3249C15.1937 18.7075 15.1937 19.0051 15.1086 19.3028C15.066 19.3453 15.066 19.3878 15.066 19.4303C15.0234 19.5154 14.9809 19.5579 14.9383 19.6004C14.8106 19.7705 14.6404 19.8555 14.5127 19.898C14.5127 19.6429 14.5127 19.3028 14.3851 19.0051C14.2148 18.58 13.9595 18.3249 13.619 18.1548C13.5339 18.1123 13.4913 18.1123 13.4062 18.1548C13.3211 18.1973 13.2785 18.2398 13.236 18.3249C13.1934 18.4099 13.1934 18.4524 13.236 18.5375C13.2785 18.6225 13.3211 18.665 13.4062 18.7075C13.6616 18.7926 13.7892 19.0477 13.8744 19.2177C14.002 19.5579 14.002 19.9405 13.9595 20.1106C13.9169 20.1531 13.8744 20.1956 13.8744 20.2381C13.7467 20.4082 13.5764 20.5358 13.4062 20.6208C13.236 20.6633 13.0232 20.7058 12.7678 20.5783C12.6827 20.5358 12.6401 20.5358 12.555 20.5783C12.4699 20.6208 12.4273 20.6633 12.3848 20.7058C12.2997 20.8334 12.3848 21.0034 12.5125 21.0885C12.7253 21.1735 12.9381 21.2586 13.1508 21.2586C13.3211 21.2586 13.4488 21.216 13.5764 21.1735C13.8744 21.0885 14.1297 20.8759 14.3425 20.5783C14.6404 20.5358 15.1086 20.3232 15.4065 19.983C15.4916 19.898 15.5342 19.813 15.6193 19.6854C15.7044 19.6004 16.2151 19.3028 16.4705 18.8776Z" fill="#489FDF"/>
</svg>
