<svg width="97" height="104" viewBox="0 0 97 104" fill="none" xmlns="http://www.w3.org/2000/svg">
<path d="M48.5215 49.9606C46.0112 49.9606 43.9746 52.1422 43.9746 54.8356C44.1906 69.5114 42.4324 83.6591 38.7267 97.8067C38.2095 99.7811 39.134 104 43.1069 104C45.0924 104 46.9168 102.594 47.4814 100.441C50.0447 90.7095 53.3621 74.9673 53.0666 54.8356C53.0684 52.1442 51.0337 49.9606 48.5215 49.9606ZM48.3586 33.3592C36.7526 33.345 28.6533 42.9203 28.8144 53.8931C28.9565 63.6309 28.1039 73.3748 26.2814 82.8486C25.7717 85.4852 27.3556 88.0669 29.8128 88.6092C32.2852 89.1516 34.6761 87.4595 35.1858 84.823C37.1447 74.6484 38.0598 64.1895 37.9082 53.7408C37.8306 48.4697 41.6822 43.0787 48.2241 43.1092C54.1559 43.2047 59.0515 48.2564 59.1405 54.3766C59.2864 64.1367 58.6081 73.9436 57.1304 83.5352C56.7193 86.188 58.3978 88.6986 60.874 89.1373C64.6574 89.8138 65.9533 86.0702 66.0992 85.1216C67.6679 74.9592 68.384 64.5633 68.2344 54.2242C68.0676 42.8898 59.1519 33.5298 48.3586 33.3592ZM27.3878 29.3414C25.4364 27.6473 22.5813 27.9601 20.9918 30.0483C16.1379 36.4467 13.5291 44.527 13.6504 52.7983C13.7621 60.4317 13.1824 68.0875 11.9244 75.5584C11.4811 78.2092 13.1199 80.7442 15.5923 81.2236C19.4022 81.9345 20.7208 78.2153 20.8762 77.2911C22.2384 69.1986 22.8655 60.907 22.7442 52.6459C22.6552 46.5766 24.4872 40.8891 28.049 36.1989C29.6309 34.1108 29.3354 31.0416 27.3878 29.3414ZM48.1275 16.6806C45.2079 16.5973 42.279 16.9731 39.4542 17.6901C37.0121 18.3117 35.5003 20.9361 36.0762 23.5584C36.6559 26.1767 39.1075 27.7895 41.5496 27.1801C43.643 26.65 45.8066 26.4144 47.991 26.4306C62.2817 26.6601 74.0847 38.9228 74.3026 53.7672C74.4144 61.4616 74.0601 69.227 73.2454 76.8483C72.9613 79.5234 74.7516 81.9427 77.2449 82.2473C80.4125 82.6434 82.0779 79.8342 82.2806 77.9594C83.1414 69.8788 83.5142 61.747 83.3965 53.6148C83.1009 33.5562 67.2795 16.9853 48.1275 16.6806ZM95.8835 41.3502C95.3416 38.7258 92.945 37.0439 90.4632 37.6391C88.0116 38.22 86.4618 40.82 87.0037 43.4505C87.896 47.7994 87.9339 51.0494 87.8941 55.963C87.8733 58.6584 89.8929 60.8562 92.4032 60.8786H92.4411C94.9362 60.8786 96.9671 58.7234 96.988 56.0442C97.0221 51.5389 97.0638 47.0844 95.8835 41.3502ZM88.2825 22.9226C79.056 8.8278 63.9583 0.262018 47.8944 0.00404911C34.6723 -0.166576 22.443 5.05983 13.3472 14.8159C4.5622 24.247 -0.172291 36.7737 0.0247429 50.1008L0.00200824 54.4619C-0.0718793 57.1533 1.90225 59.3998 4.41253 59.477C4.4561 59.4811 4.50347 59.4811 4.54894 59.4811C6.9967 59.4811 9.01819 57.3889 9.09018 54.7483L9.12049 49.9464C8.96325 39.2823 12.7505 29.2561 19.783 21.712C27.1263 13.8308 37.0879 9.59155 47.7618 9.75608C60.9195 9.9653 73.2871 16.9792 80.8445 28.5228C82.2863 30.7287 85.1186 31.2548 87.1761 29.7131C89.2298 28.1653 89.7262 25.1245 88.2825 22.9226Z" fill="#F0AD3E"/>
</svg>
