<svg width="94" height="81" viewBox="0 0 94 81" fill="none" xmlns="http://www.w3.org/2000/svg">
<path d="M93.6899 44.9068L86.2891 12.0535C85.3246 7.76854 82.7657 4.08925 79.2717 1.96303C75.7728 -0.157757 71.6065 -0.588063 67.8171 0.818566L65.3284 1.73703C63.9592 2.24147 63.2199 3.88133 63.6768 5.39644L64.5026 8.14099C64.9579 9.6561 66.4365 10.4751 67.804 9.97069L69.9549 9.17698C71.7289 8.52248 73.7084 8.53152 75.3665 9.48976C77.0457 10.4607 78.2338 12.1222 78.6907 14.158L84.9672 41.9688C81.3459 40.7375 76.8417 39.716 71.7158 39.716C66.0415 39.716 59.6427 40.9852 52.9729 44.5506H41.0303C34.3606 40.9816 27.9617 39.7142 22.2858 39.7142C17.1583 39.7142 12.6541 40.7357 9.03281 41.967L15.3093 14.1544C15.7646 12.1204 16.9559 10.457 18.6352 9.48795C20.2932 8.52971 22.2711 8.52067 24.0451 9.17517L26.1943 9.96888C27.5619 10.4733 29.0405 9.65429 29.4958 8.13918L30.3215 5.39463C30.7785 3.87952 30.0392 2.23966 28.67 1.73522L26.1813 0.816757C22.3919 -0.589871 18.2256 -0.161373 14.7267 1.96123C11.2327 4.08925 8.67379 7.76673 7.70931 12.0499L0.310069 44.9068C0.10433 45.8229 0.000204855 46.7634 0 47.7074L0 60.4086C0 71.781 8.41757 81 18.8 81H24.8578C34.6951 81 42.8696 72.694 43.6056 61.949L44.0837 54.9647H49.9179L50.3961 61.949C51.1305 72.694 59.3049 81 69.1422 81H75.2C85.5824 81 94 71.781 94 60.4104V47.7092C94 46.7636 93.8956 45.8234 93.6899 44.9068ZM33.1905 61.074C32.869 65.7585 29.2085 69.4288 24.8578 69.4288H18.8C14.193 69.4288 10.4444 65.3824 10.4444 60.4086V53.6214C13.4015 52.448 17.5303 51.2854 22.2891 51.2854C26.1829 51.2854 30.0017 52.0683 33.7013 53.6214L33.1905 61.074ZM83.5556 60.4104C83.5556 65.3843 79.807 69.4288 75.2 69.4288H69.1422C64.7898 69.4288 61.1294 65.7585 60.8095 61.074L60.2987 53.6214C63.9983 52.0683 67.8187 51.2854 71.7142 51.2854C76.4664 51.2854 80.5968 52.4498 83.5539 53.6232V60.4104H83.5556Z" fill="#F0AD3E"/>
</svg>
