<svg width="84" height="92" viewBox="0 0 84 92" fill="none" xmlns="http://www.w3.org/2000/svg">
<path d="M36.606 91.9104L28.6004 88.7297C27.7605 88.4062 27.288 87.2022 27.5243 86.0521L45.4385 1.55672C45.6747 0.406632 46.554 -0.240292 47.394 0.0831703L55.3996 3.26388C56.2395 3.58734 56.712 4.79134 56.4757 5.94142L38.5615 90.4368C38.3122 91.5869 37.446 92.2518 36.606 91.9104ZM21.6447 71.7479L27.3536 63.4098C27.9573 62.5293 27.918 61.1276 27.2487 60.319L15.3583 45.9968L27.2487 31.6746C27.918 30.866 27.9705 29.4643 27.3536 28.5838L21.6447 20.2456C21.0541 19.3831 20.0567 19.3291 19.4136 20.1558L0.501992 44.4154C-0.167331 45.26 -0.167331 46.7156 0.501992 47.5602L19.4136 71.8378C20.0567 72.6644 21.0541 72.6285 21.6447 71.7479ZM64.5864 71.8558L83.498 47.5781C84.1673 46.7336 84.1673 45.278 83.498 44.4334L64.5864 20.1378C63.9564 19.3291 62.959 19.3651 62.3553 20.2277L56.6464 28.5658C56.0427 29.4463 56.082 30.848 56.7513 31.6566L68.6417 45.9968L56.7513 60.319C56.082 61.1276 56.0295 62.5293 56.6464 63.4098L62.3553 71.7479C62.9459 72.6285 63.9433 72.6644 64.5864 71.8558Z" fill="#F0AD3E"/>
</svg>
