<svg width="42" height="52" viewBox="0 0 42 52" fill="none" xmlns="http://www.w3.org/2000/svg">
<path d="M10.4022 33.4553C10.4022 32.5917 9.80769 32.0767 8.75878 32.0767C8.33047 32.0767 8.0404 32.1193 7.88867 32.1601V34.9308C8.06832 34.9716 8.28917 34.9852 8.59358 34.9852C9.71161 34.9852 10.4022 34.4158 10.4022 33.4553Z" fill="#006DDA"/>
<path d="M16.8952 32.1057C16.4255 32.1057 16.1219 32.1466 15.9424 32.189V38.3254C16.122 38.3679 16.4121 38.3679 16.6744 38.3679C18.5799 38.3815 19.8227 37.3242 19.8227 35.0839C19.8362 33.1357 18.7037 32.1057 16.8952 32.1057Z" fill="#006DDA"/>
<path d="M28.9594 0H8.23944C5.21244 0 2.7488 2.48503 2.7488 5.53446V25.9999H2.21252C0.990808 25.9999 0 26.9977 0 28.2302V41.7554C0 42.9878 0.990701 43.9855 2.21252 43.9855H2.7488V46.4655C2.7488 49.5183 5.21244 52 8.23944 52H36.511C39.536 52 42 49.5182 42 46.4655V13.0986L28.9594 0ZM5.80436 30.671C6.45277 30.5606 7.36419 30.4773 8.64828 30.4773C9.94596 30.4773 10.8709 30.727 11.4923 31.2285C12.0859 31.7011 12.4865 32.4812 12.4865 33.3993C12.4865 34.3171 12.183 35.0974 11.6307 35.626C10.9123 36.3076 9.84988 36.6136 8.60709 36.6136C8.33049 36.6136 8.08258 36.5998 7.8887 36.5727V39.9265H5.80436V30.671ZM36.511 48.6106H8.23944C7.06737 48.6106 6.11294 47.6486 6.11294 46.4655V43.9855H32.4678C33.6897 43.9855 34.6804 42.9878 34.6804 41.7554V28.2302C34.6804 26.9977 33.6897 25.9999 32.4678 25.9999H6.11294V5.53446C6.11294 4.35477 7.06748 3.39272 8.23944 3.39272L27.7014 3.37223V10.6235C27.7014 12.7415 29.4064 14.4616 31.5092 14.4616L38.5564 14.4413L38.6356 46.4654C38.6356 47.6486 37.6829 48.6106 36.511 48.6106ZM13.8305 39.884V30.671C14.6036 30.547 15.6112 30.4773 16.6746 30.4773C18.4418 30.4773 19.5877 30.7969 20.4857 31.4784C21.452 32.2026 22.059 33.3568 22.059 35.014C22.059 36.8089 21.4106 38.0482 20.5125 38.813C19.5327 39.6339 18.0413 40.0233 16.2192 40.0233C15.128 40.0233 14.355 39.9536 13.8305 39.884ZM28.8989 34.4294V36.1546H25.5573V39.9265H23.4451V30.547H29.1332V32.2858H25.5573V34.4294H28.8989Z" fill="#006DDA"/>
</svg>
