<svg width="42" height="52" viewBox="0 0 42 52" fill="none" xmlns="http://www.w3.org/2000/svg">
<path d="M28.9596 0H8.23957C5.21256 0 2.7488 2.48503 2.7488 5.53446V25.9999H2.21242C0.990704 25.9999 0 26.9977 0 28.2302V41.7554C0 42.9878 0.990704 43.9855 2.21242 43.9855H2.7488V46.4655C2.7488 49.5183 5.21246 52 8.23957 52H36.5109C39.5363 52 42 49.5182 42 46.4655V13.0986L28.9596 0ZM5.63243 30.5469H8.04804L8.86251 32.2585C9.139 32.8281 9.34658 33.2886 9.56742 33.8172H9.59439C9.81523 33.219 9.99499 32.8007 10.2302 32.2585L11.0169 30.5469H13.4191L10.7959 35.1244L13.5572 39.9263H11.1273L10.285 38.2282C9.9401 37.5737 9.71926 37.0876 9.45604 36.5437H9.42907C9.23509 37.0876 9.00086 37.5737 8.71068 38.2282L7.9374 39.9263H5.53527L8.22758 35.1804L5.63243 30.5469ZM36.5109 48.6106H8.23957C7.06739 48.6106 6.11307 47.6486 6.11307 46.4655V43.9855H32.468C33.6897 43.9855 34.6805 42.9878 34.6805 41.7554V28.2302C34.6805 26.9977 33.6897 25.9999 32.468 25.9999H6.11307V5.53446C6.11307 4.35477 7.0675 3.39272 8.23957 3.39272L27.7016 3.37223V10.6235C27.7016 12.7415 29.4065 14.4616 31.5092 14.4616L38.5564 14.4413L38.6357 46.4654C38.6358 47.6486 37.683 48.6106 36.5109 48.6106ZM20.5069 38.145V39.9265H14.694V30.547H16.8062V38.145H20.5069ZM24.0725 35.9881C22.5262 35.4459 21.5177 34.5824 21.5177 33.2191C21.5177 31.6177 22.8432 30.394 25.0388 30.394C26.0885 30.394 26.8608 30.6166 27.414 30.8666L26.9443 32.5783C26.5717 32.3981 25.9088 32.1328 24.9973 32.1328C24.0859 32.1328 23.6442 32.5511 23.6442 33.0373C23.6442 33.6356 24.1686 33.9008 25.3701 34.3596C27.0134 34.9717 27.7867 35.8351 27.7867 37.1576C27.7867 38.7298 26.5852 40.066 24.0312 40.066C22.9679 40.066 21.9181 39.7872 21.3937 39.4947L21.8221 37.7422C22.3878 38.0347 23.2579 38.3254 24.155 38.3254C25.1213 38.3254 25.6324 37.9224 25.6324 37.3103C25.6324 36.7257 25.1907 36.3908 24.0725 35.9881Z" fill="#006DDA"/>
</svg>
